<svg width="374" height="211" viewBox="0 0 374 211" fill="none" xmlns="http://www.w3.org/2000/svg">
<path d="M56.9732 181.117C48.6796 187.3 46.3293 198.178 46.3293 198.178C46.3293 198.178 57.4238 199.032 65.7191 192.849C74.0144 186.667 76.363 175.789 76.363 175.789C76.363 175.789 65.2668 174.936 56.9732 181.117Z" fill="#F1F1F1"/>
<path d="M60.4282 184.021C56.4422 193.567 46.4594 198.486 46.4594 198.486C46.4594 198.486 42.9393 187.928 46.9269 178.383C50.9146 168.837 60.8957 163.918 60.8957 163.918C60.8957 163.918 64.4141 174.476 60.4282 184.021Z" fill="#F1F1F1"/>
<path d="M299.041 156.426C298.159 150.49 297.927 144.475 298.347 138.488L299.041 128.581C295.215 136.195 296.08 146.214 299.041 156.426Z" fill="#CACACA"/>
<path d="M174.77 73.9055C174.77 73.9055 184.736 106.794 181.746 110.781C178.756 114.768 213.639 88.8549 213.639 88.8549C213.639 88.8549 200.682 79.8858 205.665 66.9287L174.77 73.9055Z" fill="#FFB9B9"/>
<path d="M302.024 158.084C301.6 154.542 301.488 150.969 301.69 147.408L302.024 141.51C300.183 146.041 300.6 152.005 302.024 158.084Z" fill="#CACACA"/>
<path d="M315.284 165.377V168.692C315.283 168.956 315.178 169.208 314.991 169.394C314.805 169.58 314.553 169.685 314.29 169.687H312.632C312.589 169.686 312.545 169.695 312.505 169.711C312.465 169.728 312.428 169.752 312.397 169.783C312.366 169.814 312.342 169.851 312.325 169.891C312.309 169.931 312.3 169.974 312.301 170.018V197.198C312.299 197.461 312.194 197.713 312.008 197.899C311.822 198.085 311.57 198.191 311.306 198.192H291.087C290.824 198.192 290.571 198.087 290.384 197.901C290.198 197.714 290.093 197.461 290.093 197.198V170.017C290.093 169.929 290.058 169.845 289.996 169.783C289.933 169.721 289.849 169.686 289.761 169.686H287.772C287.509 169.685 287.256 169.581 287.07 169.394C286.883 169.208 286.778 168.955 286.778 168.691V165.376C286.778 165.245 286.804 165.116 286.854 164.995C286.903 164.874 286.977 164.765 287.069 164.672C287.161 164.58 287.271 164.507 287.392 164.457C287.512 164.407 287.642 164.381 287.772 164.382H314.29C314.553 164.382 314.806 164.488 314.992 164.674C315.179 164.86 315.284 165.113 315.284 165.377Z" fill="#F2F2F2"/>
<path d="M312.331 170.382H290.123V171.376H312.331V170.382Z" fill="#E6E6E6"/>
<path d="M312.301 185.015C304.87 188.09 297.357 188.124 289.761 185.015V178.009C297.074 175.553 304.989 175.553 312.301 178.009V185.015Z" fill="#E6E6E6"/>
<path d="M187.82 77.8994C204.41 77.8994 217.859 64.4508 217.859 47.8611C217.859 31.2714 204.41 17.8228 187.82 17.8228C171.231 17.8228 157.782 31.2714 157.782 47.8611C157.782 64.4508 171.231 77.8994 187.82 77.8994Z" fill="#FEB8B8"/>
<path d="M252.424 125.105C251.391 118.891 250.326 112.557 247.438 106.959C245.539 103.292 242.526 99.7979 238.464 99.0732C237.664 99.002 236.877 98.8201 236.126 98.5325C234.936 97.9591 218.943 88.8293 216.401 87.2391C214.218 85.8738 210.773 83.3463 209.036 83.3463C207.288 83.308 200.586 84.8676 174.428 82.823C174.428 82.823 167.245 85.6553 161.683 89.0899C161.598 89.0342 134.534 103.568 133.517 103.53C131.591 103.448 129.801 104.682 128.697 106.234C127.593 107.786 127.076 109.709 126.534 111.567C132.446 124.732 137.854 137.913 143.766 151.078C144.043 151.574 144.19 152.131 144.194 152.699C144.075 153.289 143.824 153.843 143.458 154.321C140.559 158.978 140.653 164.836 140.968 170.309C141.284 175.783 141.677 181.564 139.231 186.471C138.566 187.818 137.701 189.05 137.068 190.397C135.586 193.448 135.05 203.205 135.916 206.483L244.361 209.59C242.03 203.179 252.424 125.105 252.424 125.105Z" fill="#2CD097"/>
<path d="M117.161 151.66C116.945 153.225 116.923 154.811 117.096 156.382L118.65 178.704C118.796 180.807 118.94 182.906 119.137 185.005C119.51 189.078 120.067 193.118 120.759 197.153C120.775 197.726 121.017 198.269 121.433 198.663C121.848 199.057 122.403 199.271 122.976 199.256C129.82 200.704 136.887 200.646 143.87 200.252C154.525 199.657 181.787 198.532 183.451 196.369C185.116 194.205 184.146 190.706 181.974 188.956C179.803 187.206 143.829 182.942 143.829 182.942C144.18 180.156 145.24 177.533 146.246 174.888C148.053 170.198 149.741 165.353 149.775 160.328C149.809 155.303 147.914 150.02 143.798 147.141C140.411 144.778 136.052 144.34 131.926 144.437C128.924 144.522 123.737 143.804 120.995 144.978C118.825 145.934 117.567 149.534 117.161 151.66Z" fill="#FBBEBE"/>
<path d="M126.223 111.967C125.696 112.519 125.287 113.173 125.022 113.888C120.65 123.741 118.068 134.294 117.396 145.053C117.408 145.577 117.287 146.096 117.044 146.562C116.805 146.871 116.539 147.159 116.249 147.422C115.996 147.721 115.805 148.068 115.686 148.442C115.567 148.815 115.523 149.209 115.556 149.6C115.589 149.99 115.699 150.371 115.879 150.719C116.06 151.068 116.307 151.377 116.606 151.63C116.656 151.671 116.706 151.711 116.758 151.749C117.65 150.07 119.786 149.521 121.685 149.375C130.777 148.656 139.658 152.886 148.777 152.566C148.133 150.343 147.208 148.207 146.683 145.957C144.363 135.968 150.15 125.091 146.602 115.468C145.893 113.543 144.709 111.65 142.843 110.806C142.071 110.494 141.262 110.28 140.437 110.168C138.132 109.752 133.545 107.973 131.317 108.687C130.495 108.952 130.17 109.725 129.49 110.192C128.454 110.852 127.081 111.096 126.223 111.967Z" fill="#2CD097"/>
<path d="M252.489 144.979C249.747 143.805 244.56 144.524 241.558 144.438C237.431 144.341 233.072 144.778 229.686 147.142C225.57 150.021 223.677 155.304 223.709 160.329C223.741 165.354 225.429 170.198 227.237 174.889C228.243 177.534 229.304 180.157 229.655 182.943C229.655 182.943 193.681 187.208 191.509 188.957C189.338 190.706 188.367 194.206 190.033 196.369C191.698 198.533 243.666 200.705 250.508 199.257C251.08 199.272 251.635 199.058 252.051 198.664C252.467 198.27 252.709 197.726 252.725 197.154C253.416 193.119 253.973 189.077 254.346 185.006C254.544 182.907 254.686 180.809 254.833 178.705L256.388 156.383C256.561 154.812 256.539 153.226 256.323 151.66C255.917 149.534 254.659 145.934 252.489 144.979Z" fill="#FBBEBE"/>
<path d="M243.994 110.192C243.313 109.724 242.988 108.952 242.166 108.686C239.938 107.972 235.351 109.752 233.047 110.168C232.221 110.28 231.412 110.494 230.64 110.806C228.774 111.65 227.59 113.542 226.881 115.468C223.333 125.09 229.12 135.967 226.8 145.957C226.275 148.207 225.35 150.343 224.706 152.566C233.825 152.885 242.706 148.655 251.798 149.374C253.697 149.52 255.833 150.069 256.725 151.749C256.777 151.711 256.828 151.671 256.877 151.629C257.177 151.377 257.424 151.067 257.604 150.719C257.784 150.371 257.894 149.99 257.927 149.599C257.96 149.209 257.916 148.815 257.797 148.441C257.678 148.068 257.487 147.721 257.234 147.421C256.944 147.159 256.678 146.871 256.439 146.561C256.197 146.096 256.076 145.577 256.087 145.052C255.416 134.294 252.834 123.741 248.462 113.888C248.197 113.173 247.789 112.519 247.262 111.967C246.402 111.096 245.029 110.852 243.994 110.192Z" fill="#2CD097"/>
<path d="M178.924 200.323C183.402 200.323 187.032 196.694 187.032 192.216C187.032 187.738 183.402 184.109 178.924 184.109C174.446 184.109 170.817 187.738 170.817 192.216C170.817 196.694 174.446 200.323 178.924 200.323Z" fill="#FBBEBE"/>
<path d="M196.876 200.323C201.353 200.323 204.983 196.694 204.983 192.216C204.983 187.738 201.353 184.109 196.876 184.109C192.398 184.109 188.768 187.738 188.768 192.216C188.768 196.694 192.398 200.323 196.876 200.323Z" fill="#FBBEBE"/>
<path d="M246.92 210.485H135.538C134.237 210.484 132.99 209.967 132.071 209.047C131.151 208.128 130.633 206.881 130.632 205.58V138.007C130.633 136.707 131.15 135.46 132.07 134.541C132.99 133.621 134.236 133.104 135.537 133.103H246.92C248.221 133.104 249.467 133.621 250.387 134.541C251.306 135.46 251.824 136.707 251.825 138.007V205.58C251.824 206.881 251.306 208.127 250.387 209.047C249.467 209.967 248.221 210.483 246.92 210.485Z" fill="#090814"/>
<path d="M190.959 175.04C192.752 175.04 194.205 173.587 194.205 171.794C194.205 170.002 192.752 168.549 190.959 168.549C189.167 168.549 187.714 170.002 187.714 171.794C187.714 173.587 189.167 175.04 190.959 175.04Z" fill="white"/>
<path d="M373.483 196.855H0V208.332H22.0911V211H351.401V208.332H373.483V196.855Z" fill="#F1F1F1"/>
<path d="M166.212 17.4041L161.316 15.4453C161.316 15.4453 171.563 4.16682 185.814 5.14704L181.805 0.733496C181.805 0.733496 191.604 -3.18952 200.513 7.10961C205.196 12.5229 210.614 18.8867 213.995 26.0539H219.242L217.053 30.8764L224.717 35.6989L216.85 34.836C217.595 38.9992 217.34 43.2798 216.106 47.3251L216.322 51.1367C216.322 51.1367 207.198 37.0191 207.198 35.0604V39.9649C207.198 39.9649 202.298 35.5471 202.298 32.6047L199.625 36.0381L198.288 30.6451L181.809 36.0376L184.48 31.622L174.233 33.0931L178.242 27.7002C178.242 27.7002 166.661 34.0763 166.216 39.4697C165.771 44.863 159.981 51.7288 159.981 51.7288L157.308 46.8247C157.308 46.8247 153.299 24.7579 166.212 17.4041Z" fill="#090814"/>
<path d="M160.198 59.0567C155.371 59.0567 151.46 54.8276 151.46 49.6077V44.8809C151.46 39.6622 155.371 35.4319 160.2 35.4319L160.198 59.0567Z" fill="#2CD097"/>
<path d="M215.978 35.4341C220.805 35.4341 224.717 39.6644 224.717 44.8831V49.6078C224.717 54.8264 220.806 59.0567 215.978 59.0567V35.4341Z" fill="#2CD097"/>
<path d="M220.558 45.6256H219.171C219.171 26.612 204.865 11.1432 187.279 11.1432C169.694 11.1432 155.388 26.612 155.388 45.6256H154.001C154.001 25.7853 168.93 9.64392 187.279 9.64392C205.629 9.64392 220.558 25.7853 220.558 45.6256Z" fill="#2CD097"/>
</svg>
