<svg width="331" height="220" viewBox="0 0 331 220" fill="none" xmlns="http://www.w3.org/2000/svg">
<path d="M118.73 126.596C130.073 106.642 151.711 91.3202 174.617 92.7962C157.721 111.17 147.869 134.927 146.803 159.865C146.427 169.484 147.01 180.222 140.623 187.425C136.649 191.907 130.575 194.077 124.603 194.532C118.63 194.988 112.659 193.908 106.766 192.834L105.337 193.273C104.793 170.326 107.386 146.551 118.73 126.596Z" fill="#F0F0F0"/>
<path d="M174.651 93.2766C157.712 101.431 143.269 115.049 134.403 131.657C132.486 135.248 130.854 139.057 130.143 143.085C129.43 147.115 129.928 150.95 131.304 154.777C132.562 158.276 134.254 161.709 134.64 165.453C135.047 169.399 133.595 173.089 130.981 176.017C127.784 179.6 123.489 181.82 119.214 183.845C114.468 186.094 109.502 188.354 106.14 192.551C105.733 193.059 104.967 192.398 105.374 191.89C111.223 184.588 121.236 183.216 128.179 177.334C131.418 174.59 133.851 170.852 133.697 166.473C133.563 162.643 131.821 159.101 130.516 155.57C129.147 151.862 128.463 148.133 128.955 144.18C129.457 140.135 130.944 136.254 132.76 132.63C136.857 124.457 142.464 116.954 148.887 110.468C156.269 103.012 164.871 96.874 174.323 92.3193C174.908 92.0376 175.232 92.9967 174.651 93.2766Z" fill="white"/>
<path d="M137 126.107C134.404 124.208 132.566 121.448 131.817 118.32C131.067 115.192 131.454 111.899 132.908 109.03C133.204 108.45 134.119 108.883 133.822 109.463C132.463 112.133 132.103 115.2 132.807 118.112C133.511 121.023 135.233 123.587 137.661 125.341C138.189 125.723 137.525 126.486 137 126.107Z" fill="white"/>
<path d="M130.433 153.087C136.939 152.137 142.849 148.768 146.982 143.654C147.391 143.147 148.157 143.809 147.748 144.315C143.436 149.629 137.28 153.122 130.507 154.096C129.861 154.189 129.79 153.179 130.433 153.087Z" fill="white"/>
<path d="M156.769 104.257C157.62 105.201 158.693 105.919 159.89 106.346C161.088 106.773 162.373 106.895 163.63 106.703C164.274 106.602 164.344 107.612 163.704 107.712C162.314 107.918 160.895 107.781 159.571 107.312C158.247 106.843 157.058 106.057 156.107 105.023C156.01 104.933 155.95 104.809 155.94 104.676C155.93 104.544 155.972 104.413 156.055 104.309C156.143 104.208 156.267 104.146 156.401 104.136C156.535 104.127 156.667 104.17 156.769 104.257Z" fill="white"/>
<path d="M220.191 155.745C219.791 155.819 219.391 155.893 218.986 155.975C213.608 157.001 208.322 158.462 203.18 160.345C202.78 160.484 202.377 160.631 201.982 160.781C189.643 165.448 178.277 172.364 168.463 181.18C164.56 184.691 160.931 188.494 157.606 192.557C153.014 198.167 148.482 204.615 142.481 208.273C141.86 208.662 141.214 209.011 140.549 209.32L105.983 194.983C105.921 194.911 105.855 194.846 105.792 194.774L104.386 194.265C104.543 194.043 104.71 193.817 104.867 193.595C104.958 193.467 105.056 193.341 105.146 193.212C105.209 193.127 105.272 193.042 105.324 192.962C105.345 192.934 105.366 192.906 105.383 192.885C105.435 192.805 105.492 192.736 105.54 192.664C106.473 191.396 107.416 190.133 108.369 188.874C108.373 188.866 108.373 188.866 108.384 188.861C115.674 179.286 123.827 170.236 133.095 162.711C133.374 162.485 133.656 162.25 133.951 162.03C138.147 158.662 142.612 155.642 147.3 153C149.872 151.562 152.515 150.255 155.219 149.084C162.212 146.073 169.635 144.179 177.216 143.474C192.329 142.071 207.722 145.517 219.313 155.011C219.609 155.254 219.898 155.494 220.191 155.745Z" fill="#F0F0F0"/>
<path d="M219.932 156.151C201.498 152.464 181.767 154.642 164.689 162.565C160.996 164.277 157.4 166.336 154.406 169.124C151.412 171.912 149.5 175.274 148.294 179.159C147.192 182.71 146.476 186.47 144.531 189.691C142.479 193.087 139.099 195.159 135.249 195.923C130.539 196.859 125.773 196.046 121.14 195.089C115.997 194.026 110.671 192.841 105.46 194.168C104.828 194.329 104.616 193.34 105.246 193.179C114.313 190.871 123.133 195.803 132.218 195.287C136.457 195.046 140.65 193.527 143.164 189.938C145.362 186.799 146.104 182.922 147.188 179.317C148.327 175.532 150.026 172.143 152.799 169.282C155.635 166.356 159.159 164.152 162.791 162.352C170.983 158.293 179.977 155.678 189.011 154.366C199.393 152.857 209.958 153.136 220.246 155.19C220.883 155.317 220.564 156.278 219.932 156.151Z" fill="white"/>
<path d="M170.104 159.696C169.174 156.617 169.369 153.307 170.653 150.358C171.938 147.409 174.23 145.013 177.118 143.597C177.704 143.313 178.173 144.209 177.587 144.494C174.895 145.807 172.76 148.04 171.57 150.788C170.379 153.537 170.21 156.621 171.093 159.483C171.284 160.105 170.294 160.315 170.104 159.696Z" fill="white"/>
<path d="M148.616 177.285C154.383 180.443 161.13 181.311 167.509 179.717C168.141 179.558 168.354 180.547 167.723 180.706C161.081 182.353 154.062 181.435 148.067 178.135C147.496 177.82 148.048 176.971 148.616 177.285Z" fill="white"/>
<path d="M199.043 154.152C199.155 155.419 199.579 156.638 200.278 157.699C200.977 158.761 201.929 159.633 203.048 160.236C203.623 160.544 203.071 161.392 202.5 161.086C201.267 160.414 200.217 159.45 199.442 158.279C198.666 157.107 198.19 155.764 198.054 154.366C198.03 154.235 198.057 154.1 198.129 153.988C198.201 153.877 198.313 153.797 198.442 153.764C198.573 153.737 198.71 153.762 198.822 153.835C198.935 153.907 199.014 154.021 199.043 154.152Z" fill="white"/>
<path d="M154.345 179.399C149.504 155.992 143.453 148.189 143.453 148.189L141.141 146.396L138.361 144.236L138.374 143.959L137.715 143.735L137.56 143.614L137.306 143.42L137.265 143.463L137.179 143.553L124.599 139.277L108.64 133.855L101.249 124.249C100.046 122.685 98.496 121.421 96.7219 120.555C94.9478 119.69 92.9974 119.247 91.0235 119.262L67.4211 119.436C64.2298 119.46 61.1627 120.677 58.8229 122.847L43.3094 137.237L19.1364 148.782L19.0956 148.741L18.8417 148.922L15.1068 150.708L15.2609 151.51L12.9492 153.178C12.9492 153.178 6.89804 160.44 2.05708 182.22C0.825596 187.761 0.219414 199.649 0.000614872 214.298C-0.0103754 215.039 0.126064 215.775 0.401995 216.463C0.677927 217.151 1.08785 217.777 1.60792 218.305C2.128 218.833 2.74785 219.252 3.43144 219.539C4.11503 219.825 4.84872 219.972 5.58984 219.973H134.703L150.818 219.973C151.558 219.972 152.291 219.825 152.975 219.539C153.658 219.253 154.277 218.834 154.797 218.307C155.317 217.779 155.727 217.154 156.004 216.467C156.28 215.78 156.417 215.044 156.407 214.304C156.193 198.364 155.587 185.409 154.345 179.399Z" fill="#3F3D56"/>
<path d="M170.91 20.4126C165.887 20.4126 161.07 22.4081 157.518 25.96C153.966 29.512 151.97 34.3295 151.97 39.3528C151.97 44.376 153.966 49.1935 157.518 52.7455C161.07 56.2975 165.887 58.293 170.91 58.293H312.06C317.083 58.293 321.901 56.2975 325.453 52.7455C329.005 49.1935 331 44.376 331 39.3528C331 34.3295 329.005 29.512 325.453 25.96C321.901 22.4081 317.083 20.4126 312.06 20.4126H170.91Z" fill="#E5E5E5"/>
<path d="M170.91 24.2457C166.904 24.2457 163.061 25.8374 160.228 28.6705C157.395 31.5036 155.803 35.3461 155.803 39.3528C155.803 43.3594 157.395 47.202 160.228 50.0351C163.061 52.8682 166.904 54.4598 170.91 54.4598H312.06C316.067 54.4598 319.909 52.8682 322.742 50.0351C325.575 47.202 327.167 43.3594 327.167 39.3528C327.167 35.3461 325.575 31.5036 322.742 28.6705C319.909 25.8374 316.067 24.2457 312.06 24.2457H170.91Z" fill="white"/>
<path d="M82.9289 110.395C100.006 110.395 113.85 96.5507 113.85 79.4732C113.85 62.3958 100.006 48.5518 82.9289 48.5518C65.8514 48.5518 52.0074 62.3958 52.0074 79.4732C52.0074 96.5507 65.8514 110.395 82.9289 110.395Z" fill="#9E616A"/>
<path d="M75.0186 108.881C74.8865 108.59 74.7547 108.298 74.6234 108.005C74.674 108.007 74.7241 108.014 74.7747 108.015L75.0186 108.881Z" fill="#2F2E41"/>
<path d="M51.1475 49.9579C52.7114 48.7103 54.5393 47.5624 56.5388 47.6269C58.5383 47.6914 60.5659 49.4973 60.1517 51.4545C63.8244 44.9517 69.6702 39.9502 76.6631 37.3281C83.656 34.706 91.349 34.6307 98.3918 37.1155C103.361 38.8688 108.235 42.3765 109.376 47.5212C109.67 48.8418 109.732 50.2899 110.557 51.3624C111.597 52.7145 113.586 53.0203 115.224 52.5447C115.24 52.5399 115.257 52.5351 115.273 52.5302C115.55 52.4357 115.848 52.4265 116.13 52.5036C116.412 52.5807 116.665 52.7407 116.855 52.9628C117.045 53.1849 117.164 53.459 117.197 53.7496C117.23 54.0401 117.174 54.3338 117.038 54.5926L115.632 57.2151C117.405 57.6102 119.247 57.571 121.001 57.1009C121.292 57.0245 121.6 57.0401 121.882 57.1456C122.164 57.2511 122.407 57.4413 122.577 57.6901C122.747 57.939 122.835 58.2342 122.831 58.5354C122.826 58.8367 122.728 59.1291 122.551 59.3725C117.914 65.7383 110.168 69.849 102.263 69.8007C96.6448 69.7664 90.9686 67.8301 85.5008 69.1221C83.3855 69.6219 81.4089 70.589 79.7161 71.9523C78.0233 73.3157 76.6572 75.0407 75.718 77.0009C74.7788 78.9611 74.2904 81.1067 74.2886 83.2802C74.2868 85.4538 74.7717 87.6001 75.7076 89.5619C74.0278 87.7246 70.7807 88.1596 69.0624 89.961C67.3443 91.7624 66.8994 94.4511 67.0726 96.9346C67.3373 100.733 68.8255 104.312 70.3944 107.795C57.2407 107.381 44.7996 98.1543 40.6118 85.6744C36.4066 73.1423 40.8138 58.2014 51.1475 49.9579Z" fill="#2F2E41"/>
<path opacity="0.2" d="M30.4348 172.333L39.1075 219.519L44.3114 219.973L30.4348 172.333Z" fill="black"/>
<path opacity="0.2" d="M125.967 168.774L117.294 219.485L112.09 219.972L125.967 168.774Z" fill="black"/>
<path d="M58.5447 34.0773C56.8818 34.7717 55.1466 34.0107 54.4189 32.268C53.6801 30.4987 54.3702 28.7025 56.0597 27.9971C57.7494 27.2915 59.4536 28.0543 60.2044 29.8522C60.9438 31.6231 60.2613 33.3605 58.5447 34.0773ZM55.3593 24.5144L54.0371 25.0665C53.7068 25.2028 53.3374 25.2102 53.0019 25.0871C52.6665 24.9641 52.3894 24.7196 52.2255 24.4021L52.1602 24.2742C50.7375 21.7085 50.5746 18.5902 51.6786 15.0109C52.7012 11.8001 53.126 9.54195 52.2718 7.49619C51.2841 5.1309 49.1751 4.38997 46.4856 5.46329C45.4425 5.89886 45.1106 5.89192 44.2897 6.70623C44.1111 6.88552 43.8983 7.02702 43.6639 7.12228C43.4295 7.21754 43.1783 7.26462 42.9253 7.2607C42.6807 7.25782 42.4392 7.20572 42.2151 7.1075C41.9911 7.00927 41.7892 6.86694 41.6214 6.68899C41.298 6.34606 41.1169 5.89321 41.1145 5.4219C41.1121 4.95058 41.2887 4.49593 41.6086 4.14975C42.9883 2.70541 44.6525 1.56276 46.496 0.793897C52.2746 -1.61902 55.1835 1.9433 56.5147 5.13125C57.8167 8.24942 57.0843 11.1426 55.9075 14.8895C54.9213 18.0029 54.9787 20.31 56.099 22.6039C56.1799 22.7773 56.2249 22.9653 56.2313 23.1565C56.2377 23.3477 56.2054 23.5383 56.1363 23.7168C56.0672 23.8952 55.9628 24.0578 55.8292 24.1949C55.6957 24.332 55.5359 24.4407 55.3593 24.5144Z" fill="#2CD097"/>
<path d="M202.089 48.386H174.005C173.916 48.3866 173.827 48.3695 173.745 48.3358C173.662 48.3021 173.587 48.2524 173.524 48.1895C173.46 48.1266 173.41 48.0518 173.376 47.9695C173.342 47.8871 173.324 47.7987 173.324 47.7095C173.324 47.6203 173.342 47.532 173.376 47.4496C173.41 47.3672 173.46 47.2925 173.524 47.2296C173.587 47.1667 173.662 47.117 173.745 47.0833C173.827 47.0495 173.916 47.0325 174.005 47.0331H202.089C202.267 47.0343 202.438 47.1061 202.564 47.2328C202.69 47.3596 202.76 47.5309 202.76 47.7095C202.76 47.8881 202.69 48.0595 202.564 48.1862C202.438 48.3129 202.267 48.3848 202.089 48.386Z" fill="#2CD097"/>
<path d="M237.714 48.6114H209.631C209.541 48.612 209.453 48.595 209.37 48.5613C209.288 48.5276 209.213 48.4778 209.149 48.4149C209.086 48.3521 209.036 48.2773 209.001 48.1949C208.967 48.1126 208.95 48.0242 208.95 47.935C208.95 47.8458 208.967 47.7574 209.001 47.6751C209.036 47.5927 209.086 47.5179 209.149 47.455C209.213 47.3922 209.288 47.3424 209.37 47.3087C209.453 47.275 209.541 47.258 209.631 47.2586H237.714C237.803 47.258 237.892 47.275 237.974 47.3087C238.057 47.3424 238.132 47.3922 238.195 47.455C238.259 47.5179 238.309 47.5927 238.343 47.6751C238.377 47.7574 238.395 47.8458 238.395 47.935C238.395 48.0242 238.377 48.1126 238.343 48.1949C238.309 48.2773 238.259 48.3521 238.195 48.4149C238.132 48.4778 238.057 48.5276 237.974 48.5613C237.892 48.595 237.803 48.612 237.714 48.6114Z" fill="#2CD097"/>
<path d="M273.34 48.837H245.256C245.078 48.8358 244.907 48.764 244.781 48.6373C244.655 48.5105 244.584 48.3392 244.584 48.1606C244.584 47.982 244.655 47.8106 244.781 47.6839C244.907 47.5572 245.078 47.4854 245.256 47.4841H273.34C273.429 47.4835 273.517 47.5006 273.6 47.5343C273.682 47.568 273.758 47.6178 273.821 47.6806C273.884 47.7435 273.934 47.8183 273.969 47.9007C274.003 47.983 274.021 48.0714 274.021 48.1606C274.021 48.2498 274.003 48.3381 273.969 48.4205C273.934 48.5029 273.884 48.5777 273.821 48.6405C273.758 48.7034 273.682 48.7531 273.6 48.7869C273.517 48.8206 273.429 48.8376 273.34 48.837Z" fill="#2CD097"/>
<path d="M308.965 49.0625H280.882C280.703 49.0612 280.532 48.9894 280.406 48.8627C280.281 48.736 280.21 48.5646 280.21 48.386C280.21 48.2074 280.281 48.0361 280.406 47.9093C280.532 47.7826 280.703 47.7108 280.882 47.7096H308.965C309.144 47.7108 309.315 47.7826 309.441 47.9093C309.567 48.0361 309.637 48.2074 309.637 48.386C309.637 48.5646 309.567 48.736 309.441 48.8627C309.315 48.9894 309.144 49.0612 308.965 49.0625Z" fill="#2CD097"/>
<path d="M187.985 42.1607C190.868 42.1607 193.204 39.8239 193.204 36.9412C193.204 34.0585 190.868 31.7217 187.985 31.7217C185.102 31.7217 182.765 34.0585 182.765 36.9412C182.765 39.8239 185.102 42.1607 187.985 42.1607Z" fill="#2CD097"/>
<path d="M223.826 42.1607C226.708 42.1607 229.045 39.8239 229.045 36.9412C229.045 34.0585 226.708 31.7217 223.826 31.7217C220.943 31.7217 218.606 34.0585 218.606 36.9412C218.606 39.8239 220.943 42.1607 223.826 42.1607Z" fill="#2CD097"/>
<path d="M259.666 42.1607C262.549 42.1607 264.886 39.8239 264.886 36.9412C264.886 34.0585 262.549 31.7217 259.666 31.7217C256.784 31.7217 254.447 34.0585 254.447 36.9412C254.447 39.8239 256.784 42.1607 259.666 42.1607Z" fill="#2CD097"/>
<path d="M295.507 42.1607C298.39 42.1607 300.727 39.8239 300.727 36.9412C300.727 34.0585 298.39 31.7217 295.507 31.7217C292.625 31.7217 290.288 34.0585 290.288 36.9412C290.288 39.8239 292.625 42.1607 295.507 42.1607Z" fill="#2CD097"/>
</svg>
