<svg width="163" height="290" viewBox="0 0 163 290" fill="none" xmlns="http://www.w3.org/2000/svg">
<path d="M119.459 0.00720215H28.1284C13.9238 0.00720215 2.40863 11.4689 2.40863 25.6076V233.338C2.40863 247.477 13.9238 258.939 28.1284 258.939H119.459C133.663 258.939 145.178 247.477 145.178 233.338V25.6076C145.178 11.4689 133.663 0.00720215 119.459 0.00720215Z" fill="#3F3D56"/>
<path d="M142.77 25.6093V233.339C142.763 239.49 140.305 245.388 135.934 249.738C131.564 254.088 125.639 256.535 119.458 256.542H28.1294C21.9489 256.535 16.0236 254.088 11.6534 249.738C7.28313 245.388 4.82478 239.49 4.81763 233.339V25.6093C4.82478 19.4575 7.28313 13.5598 11.6534 9.20979C16.0236 4.85982 21.9489 2.41288 28.1294 2.40576H40.0721V6.51205C40.0723 8.37104 40.8142 10.1539 42.1349 11.4684C43.4555 12.7829 45.2466 13.5214 47.1143 13.5215C62.5759 18.1704 80.7251 17.4448 100.473 13.5215C102.341 13.5214 104.132 12.7829 105.453 11.4684C106.773 10.1539 107.515 8.37104 107.516 6.51205V2.40576H119.458C125.639 2.41288 131.564 4.85982 135.934 9.20979C140.305 13.5598 142.763 19.4575 142.77 25.6093Z" fill="white"/>
<path d="M1.75178 52.5345C1.28734 52.534 0.842077 52.3501 0.51367 52.0232C0.185264 51.6964 0.000532026 51.2532 0 50.7909V47.3036C0 46.8411 0.18456 46.3976 0.513082 46.0706C0.841604 45.7436 1.28718 45.5599 1.75178 45.5599C2.21638 45.5599 2.66195 45.7436 2.99047 46.0706C3.31899 46.3976 3.50356 46.8411 3.50356 47.3036V50.7909C3.50302 51.2532 3.31829 51.6964 2.98988 52.0232C2.66148 52.3501 2.21621 52.534 1.75178 52.5345Z" fill="#3F3D56"/>
<path d="M1.75178 70.4164C1.28734 70.4159 0.842077 70.232 0.51367 69.9051C0.185263 69.5782 0.00053087 69.135 0 68.6728V59.0734C0 58.6109 0.18456 58.1674 0.513082 57.8404C0.841604 57.5134 1.28718 57.3297 1.75178 57.3297C2.21638 57.3297 2.66195 57.5134 2.99047 57.8404C3.31899 58.1674 3.50356 58.6109 3.50356 59.0734V68.6728C3.50302 69.135 3.31829 69.5782 2.98988 69.9051C2.66148 70.232 2.21621 70.4159 1.75178 70.4164Z" fill="#3F3D56"/>
<path d="M1.75178 84.792C1.28734 84.7915 0.842077 84.6076 0.51367 84.2807C0.185263 83.9539 0.00053087 83.5107 0 83.0484V73.449C0 72.9865 0.18456 72.543 0.513082 72.216C0.841604 71.889 1.28718 71.7053 1.75178 71.7053C2.21638 71.7053 2.66195 71.889 2.99047 72.216C3.31899 72.543 3.50356 72.9865 3.50356 73.449V83.0484C3.50302 83.5107 3.31829 83.9539 2.98988 84.2807C2.66148 84.6076 2.21621 84.7915 1.75178 84.792Z" fill="#3F3D56"/>
<path d="M145.398 50.0376C144.934 50.0372 144.489 50.2202 144.161 50.5464C143.832 50.8725 143.647 51.3151 143.646 51.7769V75.2028C143.646 75.6652 143.831 76.1087 144.159 76.4357C144.488 76.7627 144.934 76.9464 145.398 76.9464C145.863 76.9464 146.308 76.7627 146.637 76.4357C146.965 76.1087 147.15 75.6652 147.15 75.2028V51.7769C147.148 51.3153 146.963 50.8731 146.635 50.5472C146.307 50.2212 145.862 50.038 145.398 50.0376Z" fill="#3F3D56"/>
<path d="M34.8542 12.6804H23.0297C22.4489 12.6804 21.892 12.4508 21.4813 12.042C21.0707 11.6333 20.84 11.0789 20.84 10.5008C20.84 9.92279 21.0707 9.36841 21.4813 8.95966C21.892 8.55092 22.4489 8.32129 23.0297 8.32129H34.8542C35.4349 8.32129 35.9919 8.55092 36.4025 8.95966C36.8132 9.36841 37.0439 9.92279 37.0439 10.5008C37.0439 11.0789 36.8132 11.6333 36.4025 12.042C35.9919 12.4508 35.4349 12.6804 34.8542 12.6804Z" fill="#E6E6E6"/>
<path d="M103.556 230.921C100.261 231.127 98.4395 227.052 100.933 224.677C101.024 224.316 101.089 224.056 101.181 223.695C101.148 223.617 101.115 223.538 101.082 223.46C97.7496 215.55 91.002 219.991 83.1515 223.526C76.6765 226.442 70.1503 230.241 75.5657 245.032C76.7032 248.139 75.339 251.656 76.0705 254.876C69.1826 239.921 65.6058 223.666 65.5828 207.214C65.5813 203.085 65.8118 198.96 66.273 194.857C66.6543 191.494 67.1831 188.154 67.8597 184.839C70.701 171.039 76.0303 157.867 83.5894 145.958C82.6272 145.971 81.6634 145.982 80.698 145.99C78.9609 148.813 77.342 151.703 75.8415 154.66C76.1852 151.789 76.2416 148.89 76.0101 146.008C64.3035 146.004 52.6055 145.631 42.2628 144.89C42.6551 176.44 54.3559 183.02 68.7043 167.909C69.1061 168.114 69.4977 168.319 69.8995 168.514C66.4433 178.263 64.2754 188.418 63.4503 198.723C62.9831 204.803 63.0107 210.911 63.5327 216.986C63.5224 216.914 63.5121 216.843 63.5018 216.771C62.183 210.015 58.5622 203.919 53.251 199.513C45.3625 193.063 34.2175 190.688 25.7072 185.503C21.6106 183.007 16.3611 186.232 17.0761 190.96C17.0875 191.035 17.0991 191.111 17.1109 191.186C18.3795 191.701 19.6148 192.293 20.8094 192.96C21.493 193.344 22.1622 193.752 22.8169 194.183C26.5485 196.639 25.2589 202.397 20.8374 203.076L20.7372 203.091C20.6651 203.102 20.6033 203.112 20.5312 203.122C22.6989 208.274 25.7412 213.016 29.525 217.14C30.5801 249.545 47.7092 245.366 66.0361 233.086H66.0464C67.9075 241.135 70.604 248.971 74.0925 256.466H102.836C102.939 256.148 103.031 255.82 103.124 255.502C100.464 255.668 97.7926 255.51 95.1708 255.03C97.3034 252.425 99.4359 249.8 101.568 247.196C101.616 247.147 101.661 247.096 101.702 247.042C102.784 245.709 103.876 244.386 104.958 243.053L104.958 243.051C105.016 238.965 104.545 234.889 103.557 230.922L103.556 230.921Z" fill="#2CD097"/>
<path d="M72.9283 132.1C70.1398 125.405 64.9133 119.766 60.3107 113.977C54.7822 107.025 43.4456 110.059 42.4716 118.873C42.4622 118.958 42.453 119.043 42.444 119.129C43.1277 119.512 43.7969 119.92 44.4516 120.351C48.1832 122.807 46.8936 128.565 42.472 129.245L42.3719 129.26C42.6155 131.712 43.046 134.143 43.6597 136.53C42.9257 139.266 42.4579 142.065 42.2628 144.89C52.6055 145.631 64.3035 146.004 76.0101 146.008C75.6306 140.883 74.4857 135.837 72.9283 132.1Z" fill="#E6E6E6"/>
<path d="M103.021 123.615C104.047 121.583 104.772 119.414 105.174 117.175C104.546 117.257 102.804 107.731 103.278 107.147C102.403 105.824 100.835 105.166 99.8787 103.876C95.1217 97.456 88.5679 98.5769 85.1465 107.3C77.8376 110.972 77.7668 117.061 82.2515 122.918C85.1047 126.644 85.4968 131.685 88.0002 135.674C87.7426 136.002 87.4748 136.32 87.2172 136.649C84.5531 140.057 82.0842 143.612 79.8221 147.297C80.7874 147.29 81.7512 147.279 82.7135 147.266C84.9838 143.691 87.4539 140.246 90.1121 136.946C95.6831 133.92 100.188 129.268 103.021 123.615Z" fill="#E6E6E6"/>
<path opacity="0.1" d="M142.48 25.5148V136.472C142.48 149.266 4.52771 149.266 4.52771 136.472V25.5148C4.53486 19.3631 6.99321 13.4653 11.3635 9.11531C15.7337 4.76534 21.659 2.3184 27.8395 2.31128H39.7822V6.41757C39.7823 8.27656 40.5243 10.0594 41.8449 11.3739C43.1656 12.6884 44.9567 13.4269 46.8244 13.427C61.6292 18.0552 79.9064 17.2933 100.184 13.427C102.051 13.4269 103.842 12.6884 105.163 11.3739C106.484 10.0594 107.226 8.27656 107.226 6.41757V2.31128H119.168C125.349 2.3184 131.274 4.76535 135.644 9.11531C140.015 13.4653 142.473 19.3631 142.48 25.5148Z" fill="black"/>
<path d="M86.6217 37.5051H82.6802C81.1707 37.5068 79.7236 38.1044 78.6563 39.1667C77.5889 40.2291 76.9886 41.6695 76.9869 43.172V47.5311H69.9798C68.4703 47.5328 67.0232 48.1303 65.9559 49.1927C64.8885 50.2551 64.2882 51.6955 64.2865 53.1979V61.9162C64.2882 63.4186 64.8885 64.859 65.9559 65.9214C67.0232 66.9838 68.4703 67.5814 69.9798 67.583H78.7387C80.2481 67.5814 81.6952 66.9838 82.7626 65.9214C83.8299 64.859 84.4303 63.4186 84.4319 61.9162V53.1979C84.4303 51.6955 83.8299 50.2551 82.7626 49.1927C81.6952 48.1303 80.2481 47.5328 78.7387 47.5311H77.8628V43.172C77.8642 41.9007 78.3722 40.6819 79.2753 39.783C80.1785 38.884 81.403 38.3784 82.6802 38.3769H86.6217C87.8989 38.3784 89.1234 38.884 90.0265 39.783C90.9296 40.6819 91.4376 41.9007 91.4391 43.172V47.967H92.3149V43.172C92.3133 41.6695 91.7129 40.2291 90.6456 39.1668C89.5782 38.1044 88.1311 37.5068 86.6217 37.5051ZM83.5561 53.1979V61.9162C83.5546 63.1875 83.0466 64.4063 82.1435 65.3052C81.2404 66.2041 80.0159 66.7098 78.7387 66.7112H69.9798C68.7026 66.7098 67.4781 66.2041 66.575 65.3052C65.6718 64.4063 65.1638 63.1875 65.1624 61.9162V53.1979C65.1638 51.9267 65.6718 50.7079 66.575 49.8089C67.4781 48.91 68.7026 48.4043 69.9798 48.4029C74.1268 50.8045 76.4116 49.5623 78.7387 48.4029C80.0159 48.4043 81.2404 48.91 82.1435 49.8089C83.0466 50.7079 83.5546 51.9267 83.5561 53.1979Z" fill="white"/>
<path d="M74.3592 61.4803C75.1387 61.4803 75.9008 61.2502 76.5489 60.8191C77.1971 60.388 77.7023 59.7753 78.0006 59.0585C78.299 58.3416 78.377 57.5528 78.2249 56.7917C78.0729 56.0307 77.6974 55.3317 77.1462 54.783C76.595 54.2343 75.8927 53.8607 75.1281 53.7093C74.3636 53.5579 73.571 53.6356 72.8508 53.9325C72.1306 54.2295 71.515 54.7323 71.0819 55.3775C70.6488 56.0227 70.4177 56.7812 70.4177 57.5571C70.4189 58.5972 70.8345 59.5944 71.5734 60.3299C72.3124 61.0654 73.3142 61.4791 74.3592 61.4803ZM74.3592 56.6853C76.0496 56.6853 77.4248 55.8746 77.4248 57.5571C77.4248 58.3664 77.1018 59.1425 76.5269 59.7148C75.952 60.287 75.1722 60.6085 74.3592 60.6085C73.5461 60.6085 72.7664 60.287 72.1915 59.7148C71.6166 59.1425 71.2936 58.3664 71.2936 57.5571C71.2936 55.8746 72.6688 56.6853 74.3592 56.6853Z" fill="white"/>
<path d="M74.3592 58.8647C75.0848 58.8647 75.673 58.2792 75.673 57.557C75.673 56.8348 75.0848 56.2493 74.3592 56.2493C73.6336 56.2493 73.0453 56.8348 73.0453 57.557C73.0453 58.2792 73.6336 58.8647 74.3592 58.8647Z" fill="white"/>
<path d="M147.15 62.788H143.992V63.6598H147.15V62.788Z" fill="white"/>
<path opacity="0.1" d="M4.72601 134.3V136.48C4.72601 149.274 142.678 149.274 142.678 136.48V134.3C142.678 147.094 4.72601 147.094 4.72601 134.3Z" fill="black"/>
<path d="M126.574 165.487C127.431 165.313 128.186 164.813 128.678 164.094C129.17 163.375 129.361 162.493 129.21 161.635C129.177 161.462 129.129 161.291 129.067 161.125L138.04 153.635L135.824 147.766L124.646 159.349C123.975 159.657 123.425 160.178 123.082 160.83C122.74 161.482 122.623 162.229 122.752 162.953C122.907 163.785 123.389 164.521 124.089 164.999C124.79 165.477 125.653 165.659 126.488 165.504C126.517 165.499 126.546 165.493 126.574 165.487Z" fill="#A0616A"/>
<path d="M130.799 121.29L127.241 124.114C127.241 124.114 122.989 131.81 126.037 133.406C129.085 135.002 138.561 140.31 138.561 140.31C138.561 140.31 134.644 144.19 134.183 146.075C133.721 147.96 134.743 149.634 133.12 149.24C131.497 148.846 131.451 150.13 131.055 151.745C130.659 153.361 128.02 154.848 128.02 154.848L133.065 158.553C133.065 158.553 135.4 159.374 135.591 157.424C135.783 155.473 135.251 155.749 136.874 156.143C138.497 156.537 139.865 154.009 140.729 151.651C141.593 149.294 150.414 138.32 150.414 138.32L141.186 128.099C138.369 124.979 134.792 122.634 130.799 121.29Z" fill="#2CD097"/>
<path d="M129.989 281.463L126.315 281.432L124.689 266.999L130.111 267.045L129.989 281.463Z" fill="#A0616A"/>
<path d="M118.221 287.278C118.218 287.712 118.387 288.129 118.693 288.438C118.998 288.747 119.414 288.923 119.849 288.927L127.154 288.988L128.432 286.408L128.902 289.001L131.658 289.026L130.962 279.778L130.003 279.714L126.092 279.446L124.83 279.362L124.808 281.978L118.941 285.94C118.721 286.088 118.541 286.288 118.415 286.521C118.29 286.754 118.223 287.014 118.221 287.278Z" fill="#2F2E41"/>
<path d="M96.2597 281.463L92.5862 281.432L90.9597 266.999L96.3819 267.045L96.2597 281.463Z" fill="#A0616A"/>
<path d="M84.4924 287.278C84.4891 287.712 84.6587 288.129 84.964 288.438C85.2693 288.747 85.6853 288.923 86.1208 288.927L93.4251 288.988L94.7039 286.408L95.1735 289.001L97.9296 289.026L97.2336 279.778L96.2747 279.714L92.3636 279.446L91.1018 279.362L91.0797 281.978L85.2121 285.94C84.9923 286.088 84.8119 286.288 84.6866 286.521C84.5612 286.754 84.4946 287.014 84.4924 287.278Z" fill="#2F2E41"/>
<path d="M105.765 159.24C105.765 159.24 98.7103 162.699 100.549 164.781C102.388 166.863 100.877 168.04 98.5845 169.996C96.2923 171.952 91.6776 194.86 91.6776 194.86L85.7023 230.347C85.7023 230.347 87.2877 261.334 88.3516 262.438C89.4156 263.541 91.0529 261.911 89.4156 263.541C87.7783 265.171 86.4685 263.867 87.7783 265.171C89.0882 266.475 89.4156 270.06 89.4156 270.06L97.9012 269.348C97.9012 269.348 103.425 245.53 99.6947 234.979L114.327 196.382L118.751 233.624C118.751 233.624 121.179 263.867 122.817 264.845C124.454 265.823 125.634 265.889 124.225 267.159C122.817 268.43 122.817 266.475 122.817 268.43V271.674L130.738 272.756C130.738 272.756 134.417 243.763 132.71 230.347L137.88 185.315L133.853 165.022L129.693 159.566L105.765 159.24Z" fill="#2F2E41"/>
<path d="M71.7238 148.264C72.4299 148.777 73.3094 148.996 74.1752 148.874C75.0409 148.752 75.8245 148.298 76.3592 147.609C76.4657 147.468 76.5603 147.317 76.6418 147.16L88.2477 148.716L91.113 143.132L74.9828 142.712C74.3018 142.425 73.5447 142.371 72.8297 142.559C72.1147 142.746 71.482 143.163 71.0304 143.746C70.7766 144.08 70.5914 144.46 70.4853 144.865C70.3792 145.27 70.3544 145.693 70.4122 146.107C70.47 146.522 70.6093 146.921 70.8222 147.283C71.0351 147.644 71.3173 147.96 71.6529 148.212C71.6763 148.23 71.6999 148.247 71.7238 148.264Z" fill="#A0616A"/>
<path d="M107.389 121.603L102.895 120.887C102.895 120.887 97.5008 123.818 98.3688 127.136C99.2368 130.453 98.4936 140.124 98.4936 140.124C98.4936 140.124 92.974 139.856 91.2633 140.786C89.5525 141.716 88.9978 143.596 88.1972 142.136C87.3966 140.677 88.2407 139.902 86.7744 140.699C85.308 141.496 80.5973 142.162 80.5973 142.162L78.7035 148.58C78.7035 148.58 81.3346 152.181 82.9119 151.008C84.4892 149.835 84.7996 148.088 85.6002 149.547C86.4007 151.007 86.6241 153.727 88.957 152.775C91.2899 151.823 107.955 147.503 107.955 147.503L109.969 127.463L107.389 121.603Z" fill="#2CD097"/>
<path d="M103.003 164.188C103.003 164.188 99.8297 159.148 100.434 158.408C101.038 157.669 101.795 158.947 100.434 157.656C99.0731 156.366 106.704 147.752 107.205 146.483C107.706 145.214 99.567 123.061 99.567 123.061L106.499 118.905L112.358 110.7L122.836 112.369L126.523 119.807L131.73 121.636L132.168 122.072V135.585C132.168 135.585 134.485 147.12 129.386 151.091C129.386 151.091 131.819 156.366 131.164 157.343C130.509 158.321 142.285 171.17 133.044 172.638C122.921 174.245 101.329 163.618 103.003 164.188Z" fill="#2CD097"/>
<path d="M51.0308 289.136C51.0306 289.204 51.0439 289.272 51.07 289.335C51.0961 289.398 51.1345 289.455 51.183 289.503C51.2314 289.551 51.2889 289.59 51.3522 289.616C51.4156 289.642 51.4834 289.655 51.5519 289.655H162.479C162.617 289.655 162.75 289.6 162.847 289.503C162.945 289.406 163 289.274 163 289.136C163 288.998 162.945 288.866 162.847 288.769C162.75 288.672 162.617 288.617 162.479 288.617H51.5519C51.4834 288.617 51.4156 288.63 51.3522 288.656C51.2889 288.682 51.2314 288.721 51.183 288.769C51.1345 288.817 51.0962 288.874 51.07 288.937C51.0439 289 51.0306 289.068 51.0308 289.136Z" fill="#CCCCCC"/>
<path d="M119.14 112.754C125.033 112.754 129.81 107.999 129.81 102.134C129.81 96.2685 125.033 91.5137 119.14 91.5137C113.248 91.5137 108.471 96.2685 108.471 102.134C108.471 107.999 113.248 112.754 119.14 112.754Z" fill="#A0616A"/>
<path d="M127.385 94.2825C127.275 93.3267 126.617 92.1454 126.159 91.2982C125.702 90.451 124.818 89.759 123.853 89.8181C123.459 89.8636 123.082 90.0032 122.753 90.2252C122.425 90.4472 122.156 90.745 121.968 91.093C121.6 91.7938 121.399 92.5697 121.382 93.3603C121.281 95.1244 121.577 96.8885 122.248 98.5243C122.919 100.16 123.949 101.626 125.261 102.816C126.009 103.483 126.909 104.077 127.913 104.1C128.369 104.089 128.819 103.987 129.235 103.801C129.651 103.615 130.025 103.348 130.336 103.015C131.961 101.395 132.207 98.731 131.339 96.6104C130.471 94.4899 130.083 93.6647 128.099 92.5064" fill="#2F2E41"/>
<path d="M112.396 109.557C112.575 110.502 110.933 114.995 111.458 115.805C111.458 115.805 116.89 117.683 118.967 117.818C121.504 117.982 123.545 116.945 125.918 115.386C125.961 114.54 126.207 113.717 126.636 112.985C126.6 113.552 126.716 114.118 126.971 114.626C135.86 112.428 133.684 104.489 128.315 100.769L124.747 92.5991C125.817 92.9543 122.585 87.4659 119.177 91.4408C114.912 87.1177 106.651 93.3411 105.616 98.9004C106.612 97.6456 107.131 97.7935 107.386 98.6589C107.68 97.931 108.145 97.2841 108.742 96.7726C108.445 97.357 108.293 98.0039 108.299 98.6588C115.027 99.0744 113.775 103.592 108.261 110.359C110.3 109.095 108.924 114.539 110.013 115.841C110.066 114.931 112.204 110.441 112.396 109.557Z" fill="#2F2E41"/>
<path d="M122.104 100.857C122.19 100.856 122.273 100.825 122.338 100.769C122.403 100.713 122.445 100.635 122.457 100.55C122.469 100.465 122.45 100.379 122.403 100.307C122.356 100.236 122.284 100.183 122.202 100.16C122.125 99.7226 122.117 99.2763 122.177 98.8366C122.293 96.8744 122.488 93.5904 119.284 91.3736C119.207 91.3202 119.111 91.2996 119.018 91.3164C118.925 91.3331 118.843 91.3859 118.789 91.463C118.735 91.5402 118.714 91.6355 118.73 91.728C118.747 91.8205 118.8 91.9028 118.877 91.9567C121.752 93.9463 121.579 96.8642 121.465 98.7948C121.4 99.8987 121.352 100.696 122.025 100.848C122.051 100.854 122.078 100.857 122.104 100.857Z" fill="#2CD097"/>
<path d="M121.938 93.0928C124.116 92.1931 126.436 91.6813 128.792 91.5808C130.661 91.502 132.891 91.9168 133.651 93.6182C134.111 94.6503 133.866 95.8601 133.444 96.9088C133.023 97.9574 131.052 100.074 132.187 100.051C135.036 99.9933 136.253 102.53 134.807 106.471C133.969 108.756 139.171 108.669 141.596 108.974C139.774 109.647 137.924 110.327 135.987 110.488C134.051 110.649 131.982 110.23 130.536 108.938C128.972 107.539 128.37 105.367 128.104 103.29C127.838 101.214 127.824 99.0752 127.117 97.1037C126.41 95.1323 124.785 93.2962 122.69 93.1214" fill="#2F2E41"/>
</svg>
