<svg width="338" height="213" viewBox="0 0 338 213" fill="none" xmlns="http://www.w3.org/2000/svg">
<path d="M338 87.2536H337.429V71.6158C337.429 70.4272 337.195 69.2503 336.74 68.1522C336.285 67.0541 335.619 66.0564 334.778 65.216C333.938 64.3755 332.94 63.7088 331.842 63.254C330.744 62.7992 329.567 62.5651 328.378 62.5651H295.248C294.059 62.5651 292.882 62.7992 291.784 63.254C290.686 63.7088 289.688 64.3755 288.848 65.216C288.007 66.0564 287.341 67.0541 286.886 68.1522C286.431 69.2503 286.197 70.4272 286.197 71.6158V157.406C286.197 158.595 286.431 159.772 286.886 160.87C287.341 161.968 288.007 162.966 288.848 163.806C289.688 164.646 290.686 165.313 291.784 165.768C292.882 166.223 294.059 166.457 295.248 166.457H328.378C329.567 166.457 330.744 166.223 331.842 165.768C332.94 165.313 333.938 164.646 334.778 163.806C335.619 162.966 336.285 161.968 336.74 160.87C337.195 159.772 337.429 158.595 337.429 157.406V98.3849H338V87.2536Z" fill="#3F3D56"/>
<path d="M335.503 72.1477V157.813C335.503 159.606 334.791 161.325 333.523 162.593C332.255 163.861 330.536 164.573 328.743 164.573H295.453C294.566 164.573 293.687 164.398 292.867 164.058C292.047 163.719 291.302 163.221 290.674 162.593C290.047 161.965 289.549 161.22 289.21 160.4C288.87 159.58 288.696 158.701 288.696 157.813V72.1477C288.696 70.3556 289.408 68.637 290.675 67.3698C291.942 66.1027 293.661 65.3908 295.453 65.3907H299.492C299.294 65.8783 299.218 66.4071 299.272 66.9306C299.326 67.4541 299.508 67.9563 299.802 68.393C300.095 68.8298 300.492 69.1878 300.956 69.4354C301.421 69.6831 301.939 69.8129 302.465 69.8135H321.446C321.973 69.8145 322.492 69.6856 322.957 69.4384C323.422 69.1911 323.819 68.833 324.113 68.3958C324.407 67.9586 324.589 67.4557 324.642 66.9315C324.695 66.4074 324.619 65.8782 324.419 65.3907H328.743C330.536 65.3907 332.255 66.1024 333.522 67.3695C334.79 68.6366 335.503 70.3553 335.503 72.1477Z" fill="white"/>
<path d="M329.201 109.249H290.502V119.692H329.201V109.249Z" fill="#2CD097"/>
<path d="M330.737 117.849H293.266C293.022 117.849 292.788 117.752 292.615 117.579C292.442 117.406 292.345 117.172 292.345 116.928V107.714C292.345 107.469 292.442 107.235 292.615 107.062C292.788 106.89 293.022 106.793 293.266 106.792H330.737C330.981 106.793 331.215 106.89 331.388 107.062C331.56 107.235 331.658 107.469 331.658 107.714V116.928C331.658 117.172 331.56 117.406 331.388 117.579C331.215 117.752 330.981 117.849 330.737 117.849ZM293.266 107.407C293.185 107.407 293.107 107.439 293.049 107.497C292.992 107.554 292.959 107.632 292.959 107.714V116.928C292.959 117.009 292.992 117.087 293.049 117.145C293.107 117.202 293.185 117.235 293.266 117.235H330.737C330.818 117.235 330.896 117.202 330.954 117.145C331.011 117.087 331.044 117.009 331.044 116.928V107.714C331.044 107.632 331.011 107.554 330.954 107.497C330.896 107.439 330.818 107.407 330.737 107.407H293.266Z" fill="#3F3D56"/>
<path d="M299.716 115.085H294.802V115.699H299.716V115.085Z" fill="#3F3D56"/>
<path d="M306.473 115.085H301.559V115.699H306.473V115.085Z" fill="#3F3D56"/>
<path d="M313.23 115.085H308.316V115.699H313.23V115.085Z" fill="#3F3D56"/>
<path d="M319.987 115.085H315.073V115.699H319.987V115.085Z" fill="#3F3D56"/>
<path d="M326.744 115.085H321.83V115.699H326.744V115.085Z" fill="#3F3D56"/>
<path opacity="0.1" d="M335.503 149.103V157.813C335.503 159.606 334.791 161.325 333.523 162.593C332.255 163.861 330.536 164.573 328.743 164.573H295.453C294.566 164.573 293.687 164.398 292.867 164.058C292.047 163.719 291.302 163.221 290.674 162.593C290.047 161.965 289.549 161.22 289.21 160.4C288.87 159.58 288.696 158.701 288.696 157.813V117.745L335.503 149.103Z" fill="black"/>
<path d="M175.941 141.191H30.6676V212.446H175.941V141.191Z" fill="white"/>
<path opacity="0.1" d="M139.009 212.446H31.2819C31.1191 212.446 30.9631 212.381 30.848 212.266C30.7329 212.15 30.6681 211.995 30.6676 211.832V141.805C30.6681 141.643 30.7329 141.487 30.848 141.372C30.9631 141.257 31.1191 141.192 31.2819 141.191H32.6455L139.009 212.446Z" fill="black"/>
<path d="M323.058 150.712H97.9297V151.327H323.058V150.712Z" fill="#3F3D56"/>
<path d="M169.105 1.32613H104.764V0H75.5892V1.32613H10.9828C10.4113 1.32612 9.84533 1.4387 9.3173 1.65742C8.78926 1.87614 8.30948 2.19672 7.90534 2.60085C7.50121 3.00499 7.18062 3.48477 6.9619 4.01281C6.74319 4.54084 6.63061 5.10678 6.63062 5.67832V93.7812C6.63061 94.9355 7.08915 96.0425 7.90534 96.8587C8.72154 97.6749 9.82854 98.1334 10.9828 98.1334H169.105C170.26 98.1334 171.367 97.6749 172.183 96.8587C172.999 96.0425 173.457 94.9355 173.457 93.7812V5.67832C173.457 5.10678 173.345 4.54084 173.126 4.01281C172.907 3.48477 172.587 3.00499 172.183 2.60085C171.779 2.19672 171.299 1.87614 170.771 1.65742C170.243 1.4387 169.677 1.32612 169.105 1.32613Z" fill="#3F3D56"/>
<path d="M167.621 9.01636H12.4669V96.5431H167.621V9.01636Z" fill="white"/>
<path d="M89.9114 6.63071C90.7903 6.63071 91.5028 5.91823 91.5028 5.03935C91.5028 4.16047 90.7903 3.448 89.9114 3.448C89.0326 3.448 88.3201 4.16047 88.3201 5.03935C88.3201 5.91823 89.0326 6.63071 89.9114 6.63071Z" fill="#2CD097"/>
<path d="M58.6167 41.68H54.9311C54.6868 41.6797 54.4526 41.5826 54.2799 41.4098C54.1071 41.2371 54.01 41.0029 54.0097 40.7586V37.073C54.01 36.8287 54.1071 36.5945 54.2799 36.4218C54.4526 36.249 54.6868 36.1519 54.9311 36.1516H58.6167C58.861 36.1519 59.0952 36.249 59.2679 36.4218C59.4407 36.5945 59.5378 36.8287 59.5381 37.073V40.7586C59.5378 41.0029 59.4407 41.2371 59.2679 41.4098C59.0952 41.5826 58.861 41.6797 58.6167 41.68ZM54.9311 36.7659C54.8497 36.766 54.7716 36.7984 54.7141 36.856C54.6565 36.9135 54.6241 36.9916 54.624 37.073V40.7586C54.6241 40.84 54.6565 40.9181 54.7141 40.9757C54.7716 41.0332 54.8497 41.0656 54.9311 41.0657H58.6167C58.6981 41.0656 58.7762 41.0332 58.8338 40.9757C58.8913 40.9181 58.9237 40.84 58.9238 40.7586V37.073C58.9237 36.9916 58.8913 36.9135 58.8338 36.856C58.7762 36.7984 58.6981 36.766 58.6167 36.7659H54.9311Z" fill="#3F3D56"/>
<path d="M124.343 41.0658H54.3168V41.6801H124.343V41.0658Z" fill="#3F3D56"/>
<path d="M122.5 57.958H106.222V62.8721H122.5V57.958Z" fill="#2CD097"/>
<path d="M123.729 61.6436H108.679C108.435 61.6434 108.201 61.5462 108.028 61.3735C107.855 61.2007 107.758 60.9665 107.758 60.7222V57.0366C107.758 56.7923 107.855 56.5581 108.028 56.3854C108.201 56.2127 108.435 56.1155 108.679 56.1152H123.729C123.973 56.1155 124.207 56.2127 124.38 56.3854C124.553 56.5581 124.65 56.7923 124.65 57.0366V60.7222C124.65 60.9665 124.553 61.2007 124.38 61.3735C124.207 61.5462 123.973 61.6434 123.729 61.6436ZM108.679 56.7295C108.598 56.7296 108.52 56.762 108.462 56.8196C108.405 56.8772 108.372 56.9552 108.372 57.0366V60.7222C108.372 60.8037 108.405 60.8817 108.462 60.9393C108.52 60.9969 108.598 61.0293 108.679 61.0294H123.729C123.81 61.0293 123.888 60.9969 123.946 60.9393C124.004 60.8817 124.036 60.8037 124.036 60.7222V57.0366C124.036 56.9552 124.004 56.8772 123.946 56.8196C123.888 56.762 123.81 56.7296 123.729 56.7295H108.679Z" fill="#3F3D56"/>
<path d="M246.889 63.4865H216.176V84.9858H246.889V63.4865Z" fill="#2CD097"/>
<path d="M249.961 83.2966H220.476C220.15 83.2962 219.838 83.1667 219.607 82.9364C219.377 82.706 219.248 82.3938 219.247 82.068V61.7973C219.248 61.4715 219.377 61.1593 219.607 60.9289C219.838 60.6986 220.15 60.5691 220.476 60.5687H249.961C250.286 60.5691 250.599 60.6986 250.829 60.9289C251.059 61.1592 251.189 61.4715 251.189 61.7973V82.068C251.189 82.3938 251.059 82.706 250.829 82.9364C250.599 83.1667 250.286 83.2962 249.961 83.2966ZM220.476 61.7973V82.068H249.961L249.961 61.7973H220.476Z" fill="#3F3D56"/>
<path d="M246.582 61.0293H245.354C245.354 58.3413 244.286 55.7633 242.385 53.8625C240.484 51.9618 237.906 50.8939 235.218 50.8939C232.53 50.8939 229.952 51.9618 228.051 53.8625C226.151 55.7633 225.083 58.3413 225.083 61.0293H223.854C223.854 58.0154 225.051 55.125 227.183 52.9938C229.314 50.8627 232.204 49.6654 235.218 49.6654C238.232 49.6654 241.123 50.8627 243.254 52.9938C245.385 55.125 246.582 58.0154 246.582 61.0293Z" fill="#3F3D56"/>
<path d="M238.29 69.4756C238.29 68.9407 238.151 68.415 237.886 67.9504C237.621 67.4858 237.239 67.0985 236.779 66.8267C236.318 66.555 235.795 66.4082 235.26 66.4009C234.725 66.3937 234.198 66.5262 233.73 66.7853C233.262 67.0445 232.87 67.4214 232.592 67.8786C232.315 68.3358 232.162 68.8576 232.148 69.3922C232.134 69.9269 232.26 70.4559 232.513 70.9269C232.766 71.3979 233.138 71.7946 233.592 72.0778V75.3743C233.592 75.5879 233.634 75.7993 233.716 75.9966C233.798 76.1938 233.917 76.3731 234.068 76.5241C234.219 76.6751 234.399 76.7948 234.596 76.8765C234.793 76.9583 235.005 77.0003 235.218 77.0003C235.649 77.0003 236.063 76.829 236.368 76.5241C236.673 76.2191 236.844 75.8056 236.844 75.3743V72.0778C237.286 71.8025 237.651 71.4191 237.904 70.9638C238.157 70.5085 238.289 69.9964 238.29 69.4756Z" fill="#3F3D56"/>
<path d="M92.2478 172.826H87.3336V173.44H92.2478V172.826Z" fill="#3F3D56"/>
<path d="M99.0047 172.826H94.0905V173.44H99.0047V172.826Z" fill="#3F3D56"/>
<path d="M105.762 172.826H100.848V173.44H105.762V172.826Z" fill="#3F3D56"/>
<path d="M112.518 172.826H107.604V173.44H112.518V172.826Z" fill="#3F3D56"/>
<path d="M119.276 172.826H114.361V173.44H119.276V172.826Z" fill="#3F3D56"/>
<path d="M182.391 207.225H38.3461C38.0203 207.224 37.7081 207.095 37.4777 206.865C37.2474 206.634 37.1179 206.322 37.1175 205.996V135.97C37.1179 135.644 37.2474 135.332 37.4777 135.102C37.7081 134.871 38.0203 134.742 38.3461 134.741H182.391C182.717 134.742 183.029 134.871 183.26 135.102C183.49 135.332 183.619 135.644 183.62 135.97V205.996C183.619 206.322 183.49 206.634 183.26 206.865C183.029 207.095 182.717 207.224 182.391 207.225ZM38.3461 135.97V205.996H182.392L182.391 135.97H38.3461Z" fill="#3F3D56"/>
<path d="M44.7957 146.412C45.8135 146.412 46.6385 145.587 46.6385 144.57C46.6385 143.552 45.8135 142.727 44.7957 142.727C43.778 142.727 42.9529 143.552 42.9529 144.57C42.9529 145.587 43.778 146.412 44.7957 146.412Z" fill="#3F3D56"/>
<path d="M51.2455 146.412C52.2633 146.412 53.0883 145.587 53.0883 144.57C53.0883 143.552 52.2633 142.727 51.2455 142.727C50.2278 142.727 49.4027 143.552 49.4027 144.57C49.4027 145.587 50.2278 146.412 51.2455 146.412Z" fill="#3F3D56"/>
<path d="M57.6953 146.412C58.7131 146.412 59.5381 145.587 59.5381 144.57C59.5381 143.552 58.7131 142.727 57.6953 142.727C56.6776 142.727 55.8525 143.552 55.8525 144.57C55.8525 145.587 56.6776 146.412 57.6953 146.412Z" fill="#3F3D56"/>
<path d="M124.036 177.126H82.5731C82.3288 177.125 82.0946 177.028 81.9219 176.855C81.7491 176.683 81.652 176.449 81.6517 176.204V165.762C81.652 165.517 81.7491 165.283 81.9219 165.11C82.0946 164.938 82.3288 164.841 82.5731 164.84H124.036C124.28 164.841 124.515 164.938 124.687 165.11C124.86 165.283 124.957 165.517 124.957 165.762V176.204C124.957 176.449 124.86 176.683 124.687 176.855C124.515 177.028 124.28 177.125 124.036 177.126ZM82.5731 165.455C82.4917 165.455 82.4136 165.487 82.356 165.545C82.2984 165.602 82.2661 165.68 82.266 165.762V176.204C82.2661 176.286 82.2984 176.364 82.356 176.421C82.4136 176.479 82.4917 176.511 82.5731 176.511H124.036C124.117 176.511 124.196 176.479 124.253 176.421C124.311 176.364 124.343 176.286 124.343 176.204V165.762C124.343 165.68 124.311 165.602 124.253 165.545C124.196 165.487 124.117 165.455 124.036 165.455H82.5731Z" fill="#3F3D56"/>
<path d="M134.479 177.433C137.532 177.433 140.007 174.958 140.007 171.904C140.007 168.851 137.532 166.376 134.479 166.376C131.425 166.376 128.95 168.851 128.95 171.904C128.95 174.958 131.425 177.433 134.479 177.433Z" fill="#2CD097"/>
<path d="M136.321 176.819C135.167 176.819 134.039 176.476 133.079 175.835C132.12 175.194 131.372 174.282 130.93 173.216C130.488 172.15 130.373 170.977 130.598 169.845C130.823 168.713 131.379 167.673 132.195 166.857C133.011 166.041 134.051 165.485 135.183 165.26C136.315 165.034 137.488 165.15 138.555 165.592C139.621 166.033 140.532 166.781 141.173 167.741C141.815 168.701 142.157 169.829 142.157 170.983C142.155 172.53 141.54 174.013 140.446 175.107C139.352 176.201 137.869 176.817 136.321 176.819ZM136.321 165.762C135.289 165.762 134.279 166.068 133.421 166.642C132.562 167.215 131.893 168.031 131.498 168.985C131.102 169.939 130.999 170.989 131.2 172.002C131.402 173.014 131.899 173.945 132.629 174.675C133.36 175.405 134.29 175.902 135.303 176.104C136.316 176.305 137.365 176.202 138.32 175.807C139.274 175.412 140.089 174.742 140.663 173.884C141.236 173.025 141.543 172.016 141.543 170.983C141.541 169.599 140.991 168.272 140.012 167.293C139.033 166.314 137.706 165.763 136.321 165.762Z" fill="#3F3D56"/>
<path d="M136.403 173.162L133.43 170.189L134.298 169.32L136.239 171.261L141.655 163.565L142.659 164.273L136.403 173.162Z" fill="#3F3D56"/>
<path opacity="0.1" d="M133.222 96.5433H12.4669V15.6476L133.222 96.5433Z" fill="black"/>
<path d="M177.814 94.9507H162.672V93.8598C162.672 93.8313 162.666 93.8032 162.655 93.777C162.644 93.7507 162.628 93.7269 162.608 93.7068C162.588 93.6867 162.564 93.6708 162.538 93.6599C162.512 93.649 162.484 93.6434 162.455 93.6434H157.264C157.235 93.6434 157.207 93.649 157.181 93.6599C157.155 93.6708 157.131 93.6867 157.111 93.7068C157.091 93.7269 157.075 93.7507 157.064 93.777C157.053 93.8032 157.047 93.8313 157.047 93.8598V94.9507H153.803V93.8598C153.803 93.8313 153.797 93.8032 153.786 93.777C153.775 93.7507 153.759 93.7269 153.739 93.7068C153.719 93.6867 153.695 93.6708 153.669 93.6599C153.643 93.649 153.615 93.6434 153.586 93.6434H148.395C148.366 93.6434 148.338 93.649 148.312 93.6599C148.286 93.6708 148.262 93.6867 148.242 93.7068C148.222 93.7269 148.206 93.7507 148.195 93.777C148.184 93.8032 148.178 93.8313 148.178 93.8598V94.9507H144.933V93.8598C144.933 93.8313 144.928 93.8032 144.917 93.777C144.906 93.7507 144.89 93.7269 144.87 93.7068C144.85 93.6867 144.826 93.6708 144.8 93.6599C144.774 93.649 144.746 93.6434 144.717 93.6434H139.526C139.497 93.6434 139.469 93.649 139.443 93.6599C139.417 93.6708 139.393 93.6867 139.373 93.7068C139.352 93.7269 139.337 93.7507 139.326 93.777C139.315 93.8032 139.309 93.8313 139.309 93.8598V94.9507H136.064V93.8598C136.064 93.8313 136.059 93.8032 136.048 93.777C136.037 93.7507 136.021 93.7269 136.001 93.7068C135.981 93.6867 135.957 93.6708 135.931 93.6599C135.905 93.649 135.877 93.6434 135.848 93.6434H130.656C130.628 93.6434 130.6 93.649 130.574 93.6599C130.547 93.6708 130.524 93.6867 130.504 93.7068C130.483 93.7269 130.467 93.7507 130.457 93.777C130.446 93.8032 130.44 93.8313 130.44 93.8598V94.9507H127.195V93.8598C127.195 93.8313 127.19 93.8032 127.179 93.777C127.168 93.7507 127.152 93.7269 127.132 93.7068C127.112 93.6867 127.088 93.6708 127.062 93.6599C127.036 93.649 127.007 93.6434 126.979 93.6434H121.787C121.759 93.6434 121.731 93.649 121.705 93.6599C121.678 93.6708 121.655 93.6867 121.634 93.7068C121.614 93.7269 121.598 93.7507 121.588 93.777C121.577 93.8032 121.571 93.8313 121.571 93.8598V94.9507H118.326V93.8598C118.326 93.8313 118.321 93.8032 118.31 93.777C118.299 93.7507 118.283 93.7269 118.263 93.7068C118.243 93.6867 118.219 93.6708 118.193 93.6599C118.167 93.649 118.138 93.6434 118.11 93.6434H112.918C112.89 93.6434 112.862 93.649 112.836 93.6599C112.809 93.6708 112.785 93.6867 112.765 93.7068C112.745 93.7269 112.729 93.7507 112.718 93.777C112.708 93.8032 112.702 93.8313 112.702 93.8598V94.9507H109.457V93.8598C109.457 93.8313 109.452 93.8032 109.441 93.777C109.43 93.7507 109.414 93.7269 109.394 93.7068C109.374 93.6867 109.35 93.6708 109.324 93.6599C109.297 93.649 109.269 93.6434 109.241 93.6434H68.573C68.5446 93.6434 68.5165 93.649 68.4902 93.6599C68.464 93.6708 68.4401 93.6867 68.42 93.7068C68.4 93.7269 68.384 93.7507 68.3732 93.777C68.3623 93.8032 68.3567 93.8313 68.3567 93.8598V94.9507H65.1119V93.8598C65.1119 93.8313 65.1063 93.8032 65.0954 93.777C65.0846 93.7507 65.0686 93.7269 65.0485 93.7068C65.0285 93.6867 65.0046 93.6708 64.9784 93.6599C64.9521 93.649 64.924 93.6434 64.8956 93.6434H59.7039C59.6755 93.6434 59.6474 93.649 59.6212 93.6599C59.5949 93.6708 59.5711 93.6867 59.551 93.7068C59.5309 93.7269 59.515 93.7507 59.5041 93.777C59.4932 93.8032 59.4876 93.8313 59.4876 93.8598V94.9507H56.2428V93.8598C56.2428 93.8313 56.2373 93.8032 56.2264 93.777C56.2155 93.7507 56.1996 93.7269 56.1795 93.7068C56.1594 93.6867 56.1356 93.6708 56.1093 93.6599C56.0831 93.649 56.0549 93.6434 56.0265 93.6434H50.8349C50.8065 93.6434 50.7783 93.649 50.7521 93.6599C50.7259 93.6708 50.702 93.6867 50.6819 93.7068C50.6618 93.7269 50.6459 93.7507 50.635 93.777C50.6242 93.8032 50.6186 93.8313 50.6186 93.8598V94.9507H47.3738V93.8598C47.3738 93.8313 47.3682 93.8032 47.3573 93.777C47.3464 93.7507 47.3305 93.7269 47.3104 93.7068C47.2903 93.6867 47.2665 93.6708 47.2402 93.6599C47.214 93.649 47.1859 93.6434 47.1575 93.6434H41.9658C41.9374 93.6434 41.9093 93.649 41.883 93.6599C41.8568 93.6708 41.833 93.6867 41.8129 93.7068C41.7928 93.7269 41.7768 93.7507 41.766 93.777C41.7551 93.8032 41.7495 93.8313 41.7495 93.8598V94.9507H38.5047V93.8598C38.5047 93.8313 38.4991 93.8032 38.4883 93.777C38.4774 93.7507 38.4614 93.7269 38.4414 93.7068C38.4213 93.6867 38.3974 93.6708 38.3712 93.6599C38.3449 93.649 38.3168 93.6434 38.2884 93.6434H33.0967C33.0683 93.6434 33.0402 93.649 33.014 93.6599C32.9877 93.6708 32.9639 93.6867 32.9438 93.7068C32.9237 93.7269 32.9078 93.7507 32.8969 93.777C32.886 93.8032 32.8804 93.8313 32.8804 93.8598V94.9507H29.6357V93.8598C29.6357 93.8313 29.6301 93.8032 29.6192 93.777C29.6083 93.7507 29.5924 93.7269 29.5723 93.7068C29.5522 93.6867 29.5284 93.6708 29.5021 93.6599C29.4759 93.649 29.4478 93.6434 29.4193 93.6434H24.2277C24.1993 93.6434 24.1712 93.649 24.1449 93.6599C24.1187 93.6708 24.0948 93.6867 24.0747 93.7068C24.0546 93.7269 24.0387 93.7507 24.0278 93.777C24.017 93.8032 24.0114 93.8313 24.0114 93.8598V94.9507H20.7666V93.8598C20.7666 93.8313 20.761 93.8032 20.7501 93.777C20.7393 93.7507 20.7233 93.7269 20.7032 93.7068C20.6831 93.6867 20.6593 93.6708 20.6331 93.6599C20.6068 93.649 20.5787 93.6434 20.5503 93.6434H15.3586C15.3302 93.6434 15.3021 93.649 15.2758 93.6599C15.2496 93.6708 15.2257 93.6867 15.2057 93.7068C15.1856 93.7269 15.1696 93.7507 15.1588 93.777C15.1479 93.8032 15.1423 93.8313 15.1423 93.8598V94.9507H5.19165C4.50987 94.9507 3.83477 95.085 3.20489 95.3459C2.57501 95.6068 2.00269 95.9893 1.5206 96.4713C1.03851 96.9534 0.656094 97.5258 0.39519 98.1556C0.134285 98.7855 -4.03332e-07 99.4606 0 100.142V102.49C3.25827e-06 103.867 0.54698 105.187 1.5206 106.161C2.49422 107.135 3.81474 107.682 5.19165 107.682H177.814C178.496 107.682 179.171 107.547 179.801 107.286C180.431 107.025 181.003 106.643 181.485 106.161C181.967 105.679 182.349 105.107 182.61 104.477C182.871 103.847 183.006 103.172 183.006 102.49V100.142C183.006 99.4606 182.871 98.7855 182.61 98.1556C182.349 97.5258 181.967 96.9534 181.485 96.4713C181.003 95.9892 180.431 95.6068 179.801 95.3459C179.171 95.085 178.496 94.9507 177.814 94.9507Z" fill="#3F3D56"/>
<path d="M130.486 66.865H49.4028C49.1585 66.8647 48.9243 66.7676 48.7516 66.5948C48.5788 66.4221 48.4817 66.1879 48.4814 65.9436V32.1589C48.4817 31.9147 48.5788 31.6805 48.7516 31.5077C48.9243 31.335 49.1585 31.2378 49.4028 31.2375H130.486C130.73 31.2378 130.964 31.335 131.137 31.5077C131.31 31.6805 131.407 31.9147 131.407 32.1589V65.9436C131.407 66.1879 131.31 66.4221 131.137 66.5948C130.964 66.7676 130.73 66.8647 130.486 66.865ZM49.4028 31.8518C49.3214 31.8519 49.2433 31.8843 49.1857 31.9419C49.1282 31.9995 49.0958 32.0775 49.0957 32.1589V65.9436C49.0958 66.025 49.1282 66.1031 49.1857 66.1606C49.2433 66.2182 49.3214 66.2506 49.4028 66.2507H130.486C130.567 66.2506 130.645 66.2182 130.703 66.1606C130.761 66.1031 130.793 66.025 130.793 65.9436V32.1589C130.793 32.0775 130.761 31.9995 130.703 31.9419C130.645 31.8843 130.567 31.8519 130.486 31.8518H49.4028Z" fill="#3F3D56"/>
<path d="M58.6167 50.894H54.9311C54.6868 50.8937 54.4526 50.7966 54.2799 50.6238C54.1071 50.4511 54.01 50.2169 54.0097 49.9726V46.287C54.01 46.0427 54.1071 45.8085 54.2799 45.6358C54.4526 45.463 54.6868 45.3659 54.9311 45.3656H58.6167C58.861 45.3659 59.0952 45.463 59.2679 45.6358C59.4407 45.8085 59.5378 46.0427 59.5381 46.287V49.9726C59.5378 50.2169 59.4407 50.4511 59.2679 50.6238C59.0952 50.7966 58.861 50.8937 58.6167 50.894ZM54.9311 45.9799C54.8497 45.98 54.7716 46.0124 54.7141 46.0699C54.6565 46.1275 54.6241 46.2056 54.624 46.287V49.9726C54.6241 50.054 54.6565 50.1321 54.7141 50.1897C54.7716 50.2472 54.8497 50.2796 54.9311 50.2797H58.6167C58.6981 50.2796 58.7762 50.2472 58.8338 50.1897C58.8913 50.1321 58.9237 50.054 58.9238 49.9726V46.287C58.9237 46.2056 58.8913 46.1275 58.8338 46.0699C58.7762 46.0124 58.6981 45.98 58.6167 45.9799H54.9311Z" fill="#3F3D56"/>
<path d="M124.343 50.2798H54.3168V50.8941H124.343V50.2798Z" fill="#3F3D56"/>
<path d="M306.473 82.8359H81.3446V83.4502H306.473V82.8359Z" fill="#3F3D56"/>
<path d="M81.3446 87.1357C83.7193 87.1357 85.6444 85.2106 85.6444 82.8359C85.6444 80.4611 83.7193 78.536 81.3446 78.536C78.9698 78.536 77.0447 80.4611 77.0447 82.8359C77.0447 85.2106 78.9698 87.1357 81.3446 87.1357Z" fill="#3F3D56"/>
<path d="M306.473 86.8286C308.339 86.8286 309.851 85.316 309.851 83.4501C309.851 81.5842 308.339 80.0717 306.473 80.0717C304.607 80.0717 303.095 81.5842 303.095 83.4501C303.095 85.316 304.607 86.8286 306.473 86.8286Z" fill="#3F3D56"/>
<path d="M323.058 154.705C324.924 154.705 326.437 153.192 326.437 151.326C326.437 149.461 324.924 147.948 323.058 147.948C321.192 147.948 319.68 149.461 319.68 151.326C319.68 153.192 321.192 154.705 323.058 154.705Z" fill="#3F3D56"/>
<path d="M98.8511 154.705C100.717 154.705 102.23 153.192 102.23 151.326C102.23 149.461 100.717 147.948 98.8511 147.948C96.9852 147.948 95.4726 149.461 95.4726 151.326C95.4726 153.192 96.9852 154.705 98.8511 154.705Z" fill="#3F3D56"/>
</svg>
