<svg width="97" height="147" viewBox="0 0 97 147" fill="none" xmlns="http://www.w3.org/2000/svg">
<rect x="41" width="35" height="35" rx="3" fill="#D9D9D9" fill-opacity="0.09"/>
<path d="M48.5 93.1111C51.4639 93.1111 54.0021 92.0567 56.1145 89.9478C58.2269 87.839 59.2814 85.3008 59.2778 82.3333C59.2742 79.3658 58.2198 76.8295 56.1145 74.7242C54.0092 72.6189 51.4711 71.5627 48.5 71.5555C45.5289 71.5484 42.9926 72.6046 40.8909 74.7242C38.7892 76.8438 37.733 79.3802 37.7222 82.3333C37.7114 85.2864 38.7677 87.8246 40.8909 89.9478C43.0141 92.071 45.5505 93.1254 48.5 93.1111ZM43.1111 136.222V119.517C38.7102 118.529 34.7817 116.666 31.3256 113.928C27.8695 111.191 25.3314 107.754 23.7111 103.619C16.975 102.811 11.34 99.8705 6.80617 94.7978C2.27231 89.7251 0.00359259 83.7739 0 76.9444V71.5555C0 68.5917 1.05622 66.0553 3.16867 63.9464C5.28111 61.8376 7.81748 60.7814 10.7778 60.7778H21.5556C21.5556 57.8139 22.6118 55.2775 24.7242 53.1687C26.8367 51.0598 29.373 50.0036 32.3333 50H64.6667C67.6305 50 70.1687 51.0562 72.2812 53.1687C74.3936 55.2811 75.448 57.8175 75.4444 60.7778H86.2222C89.1861 60.7778 91.7243 61.834 93.8367 63.9464C95.9492 66.0589 97.0036 68.5952 97 71.5555V76.9444C97 83.7703 94.7313 89.7215 90.1938 94.7978C85.6564 99.8741 80.0214 102.815 73.2889 103.619C71.6722 107.751 69.1358 111.187 65.6798 113.928C62.2237 116.669 58.2934 118.532 53.8889 119.517V136.222H70.0555C71.5824 136.222 72.8632 136.739 73.8978 137.774C74.9325 138.809 75.448 140.088 75.4444 141.611C75.4408 143.134 74.9235 144.415 73.8924 145.453C72.8614 146.492 71.5824 147.007 70.0555 147H26.9444C25.4176 147 24.1386 146.483 23.1076 145.448C22.0765 144.413 21.5591 143.134 21.5556 141.611C21.552 140.088 22.0693 138.809 23.1076 137.774C24.1458 136.739 25.4248 136.222 26.9444 136.222H43.1111ZM21.5556 92.0333V71.5555H10.7778V76.9444C10.7778 80.3574 11.7657 83.4344 13.7417 86.1756C15.7176 88.9167 18.3222 90.8693 21.5556 92.0333ZM48.5 109.278C52.9907 109.278 56.8079 107.706 59.9514 104.562C63.0949 101.419 64.6667 97.6018 64.6667 93.1111V60.7778H32.3333V93.1111C32.3333 97.6018 33.9051 101.419 37.0486 104.562C40.1921 107.706 44.0093 109.278 48.5 109.278ZM75.4444 92.0333C78.6778 90.8657 81.2824 88.9113 83.2583 86.1702C85.2343 83.429 86.2222 80.3538 86.2222 76.9444V71.5555H75.4444V92.0333Z" fill="white" fill-opacity="0.1"/>
</svg>
