<svg width="131" height="122" viewBox="0 0 131 122" fill="none" xmlns="http://www.w3.org/2000/svg">
<path d="M1.55782 127.552C-3.85889 115.828 17.201 99.1079 17.201 99.1079C12.7397 80.8329 13.6691 71.3716 25.8905 56.9123C31.7346 51.3711 35.5541 48.6749 43.9055 45.0273C52.257 41.3796 62.0524 39.416 71.771 35.7611C81.4896 32.1062 87.6037 28.9058 95.438 20.5083C103.272 12.1108 105.785 0.974597 105.785 0.974597C105.785 0.974597 111.058 5.13575 113.912 8.38326C117.09 12.0003 118.474 14.4234 120.911 18.6323C123.53 23.1539 124.97 25.7764 126.699 30.7435C129.442 38.6198 129.907 43.5264 130.109 51.8742C130.279 58.8801 130.309 62.997 128.5 69.6988C126.593 76.7636 124.253 80.3052 120.431 86.4031C116.472 92.72 113.97 96.2167 108.584 101.198C105.134 104.389 102.932 105.859 99.0503 108.439C92.682 112.671 88.8594 114.757 81.7781 117.48C70.1395 121.954 62.6801 125.633 50.4252 123.047C41.7788 121.223 31.6474 121.856 29.9882 112.67C28.7268 105.687 33.3955 101.908 37.8329 96.6972C42.5796 91.1227 46.8639 89.8493 53.1748 86.4159C62.7164 81.2248 69.9423 82.5982 79.1171 76.7241C84.5222 73.2636 87.5832 71.1047 91.8463 66.1737C95.4844 61.9656 94.5016 62.5332 99.6485 54.1102C104.795 45.6871 93.4612 61.5144 88.846 65.4935C83.1963 70.3646 79.7454 72.949 73.0455 76.0148C66.6889 78.9236 62.4869 78.6433 55.8904 80.9024C49.0703 83.238 45.0348 84.2028 38.7531 87.8267C32.3434 91.5245 28.7544 93.9783 23.7312 99.5773C14.6233 109.729 11.2625 131.066 9.27546 132.106C7.2884 133.146 5.44345 132.884 4.12812 131.731C2.81279 130.578 2.36529 129.3 1.55782 127.552Z" fill="#D9D9D9" fill-opacity="0.06"/>
</svg>


