<svg width="24" height="24" viewBox="0 0 24 24" fill="none" xmlns="http://www.w3.org/2000/svg">
<path d="M10.0833 16.7061L5.45459 12.0762L6.99714 10.5337L10.0833 13.6188L16.2535 7.44751L17.7971 8.99115L10.0833 16.7061Z" fill="#3EA03C"/>
<path fill-rule="evenodd" clip-rule="evenodd" d="M0 4.36364C0 3.20633 0.459739 2.09642 1.27808 1.27808C2.09642 0.459739 3.20633 0 4.36364 0H19.6364C20.7937 0 21.9036 0.459739 22.7219 1.27808C23.5403 2.09642 24 3.20633 24 4.36364V19.6364C24 20.7937 23.5403 21.9036 22.7219 22.7219C21.9036 23.5403 20.7937 24 19.6364 24H4.36364C3.20633 24 2.09642 23.5403 1.27808 22.7219C0.459739 21.9036 0 20.7937 0 19.6364V4.36364ZM4.36364 2.18182H19.6364C20.215 2.18182 20.77 2.41169 21.1791 2.82086C21.5883 3.23003 21.8182 3.78498 21.8182 4.36364V19.6364C21.8182 20.215 21.5883 20.77 21.1791 21.1791C20.77 21.5883 20.215 21.8182 19.6364 21.8182H4.36364C3.78498 21.8182 3.23003 21.5883 2.82086 21.1791C2.41169 20.77 2.18182 20.215 2.18182 19.6364V4.36364C2.18182 3.78498 2.41169 3.23003 2.82086 2.82086C3.23003 2.41169 3.78498 2.18182 4.36364 2.18182Z" fill="#3EA03C"/>
</svg>
