<svg width="26" height="26" viewBox="0 0 26 26" fill="none" xmlns="http://www.w3.org/2000/svg">
<path opacity="0.5" d="M13.0001 23.8333C18.9833 23.8333 23.8334 18.9832 23.8334 13C23.8334 7.01674 18.9833 2.16666 13.0001 2.16666C7.01683 2.16666 2.16675 7.01674 2.16675 13C2.16675 18.9832 7.01683 23.8333 13.0001 23.8333Z" fill="#0F534E"/>
<path fill-rule="evenodd" clip-rule="evenodd" d="M13 7.85416C13.2155 7.85416 13.4222 7.93976 13.5745 8.09213C13.7269 8.24451 13.8125 8.45117 13.8125 8.66666V12.6642L16.2825 15.1342C16.3623 15.2085 16.4264 15.2982 16.4708 15.3979C16.5152 15.4976 16.539 15.6052 16.541 15.7143C16.5429 15.8234 16.5228 15.9317 16.482 16.0329C16.4411 16.1341 16.3803 16.226 16.3031 16.3031C16.226 16.3803 16.1341 16.4411 16.0329 16.482C15.9317 16.5228 15.8234 16.5429 15.7143 16.541C15.6052 16.539 15.4976 16.5152 15.3979 16.4708C15.2983 16.4263 15.2086 16.3623 15.1342 16.2825L12.4258 13.5742C12.2734 13.4219 12.1877 13.2154 12.1875 13V8.66666C12.1875 8.45117 12.2731 8.24451 12.4255 8.09213C12.5778 7.93976 12.7845 7.85416 13 7.85416Z" fill="#0E504C"/>
</svg>
