<svg width="20" height="20" viewBox="0 0 20 20" fill="none" xmlns="http://www.w3.org/2000/svg">
<path id="Vector" d="M7.117 0H7.15C7.34891 0 7.53968 0.0790175 7.68033 0.21967C7.82098 0.360322 7.9 0.551088 7.9 0.75C7.9 0.948912 7.82098 1.13968 7.68033 1.28033C7.53968 1.42098 7.34891 1.5 7.15 1.5C6.018 1.5 5.213 1.5 4.584 1.552C3.964 1.602 3.579 1.699 3.274 1.854C2.66263 2.16556 2.16556 2.66263 1.854 3.274C1.699 3.579 1.603 3.964 1.552 4.584C1.501 5.214 1.5 6.018 1.5 7.15C1.5 7.34891 1.42098 7.53968 1.28033 7.68033C1.13968 7.82098 0.948912 7.9 0.75 7.9C0.551088 7.9 0.360322 7.82098 0.21967 7.68033C0.0790175 7.53968 0 7.34891 0 7.15V7.117C0 6.025 -7.82311e-08 5.159 0.0569999 4.462C0.115 3.748 0.237 3.145 0.517 2.594C0.972675 1.69999 1.69977 0.973244 2.594 0.518C3.144 0.237 3.748 0.115 4.462 0.0569999C5.159 -7.82311e-08 6.025 0 7.117 0ZM14.917 1.552C14.287 1.501 13.482 1.5 12.35 1.5C12.1511 1.5 11.9603 1.42098 11.8197 1.28033C11.679 1.13968 11.6 0.948912 11.6 0.75C11.6 0.551088 11.679 0.360322 11.8197 0.21967C11.9603 0.0790175 12.1511 0 12.35 0H12.383C13.475 0 14.341 -7.82311e-08 15.038 0.0569999C15.752 0.115 16.355 0.237 16.907 0.517C17.8006 0.972845 18.527 1.69992 18.982 2.594C19.263 3.144 19.385 3.748 19.443 4.462C19.5 5.159 19.5 6.025 19.5 7.117V7.15C19.5 7.34891 19.421 7.53968 19.2803 7.68033C19.1397 7.82098 18.9489 7.9 18.75 7.9C18.5511 7.9 18.3603 7.82098 18.2197 7.68033C18.079 7.53968 18 7.34891 18 7.15C18 6.018 18 5.213 17.948 4.584C17.898 3.964 17.801 3.579 17.646 3.274C17.3344 2.66263 16.8374 2.16556 16.226 1.854C15.921 1.699 15.537 1.603 14.917 1.552ZM5.75 5C5.94891 5 6.13968 5.07902 6.28033 5.21967C6.42098 5.36032 6.5 5.55109 6.5 5.75V7.25C6.5 7.44891 6.42098 7.63968 6.28033 7.78033C6.13968 7.92098 5.94891 8 5.75 8C5.55109 8 5.36032 7.92098 5.21967 7.78033C5.07902 7.63968 5 7.44891 5 7.25V5.75C5 5.55109 5.07902 5.36032 5.21967 5.21967C5.36032 5.07902 5.55109 5 5.75 5ZM13.75 5C13.9489 5 14.1397 5.07902 14.2803 5.21967C14.421 5.36032 14.5 5.55109 14.5 5.75V7.25C14.5 7.44891 14.421 7.63968 14.2803 7.78033C14.1397 7.92098 13.9489 8 13.75 8C13.5511 8 13.3603 7.92098 13.2197 7.78033C13.079 7.63968 13 7.44891 13 7.25V5.75C13 5.55109 13.079 5.36032 13.2197 5.21967C13.3603 5.07902 13.5511 5 13.75 5ZM9.75 6.75C9.94891 6.75 10.1397 6.82902 10.2803 6.96967C10.421 7.11032 10.5 7.30109 10.5 7.5V11.5C10.5 11.6989 10.421 11.8897 10.2803 12.0303C10.1397 12.171 9.94891 12.25 9.75 12.25H8.75C8.55109 12.25 8.36032 12.171 8.21967 12.0303C8.07902 11.8897 8 11.6989 8 11.5C8 11.3011 8.07902 11.1103 8.21967 10.9697C8.36032 10.829 8.55109 10.75 8.75 10.75H9V7.5C9 7.30109 9.07902 7.11032 9.21967 6.96967C9.36032 6.82902 9.55109 6.75 9.75 6.75ZM0.75 11.6C0.948912 11.6 1.13968 11.679 1.28033 11.8197C1.42098 11.9603 1.5 12.1511 1.5 12.35C1.5 13.483 1.5 14.287 1.552 14.916C1.602 15.536 1.699 15.921 1.854 16.226C2.16556 16.8374 2.66263 17.3344 3.274 17.646C3.579 17.801 3.964 17.897 4.584 17.948C5.214 17.999 6.018 18 7.15 18C7.34891 18 7.53968 18.079 7.68033 18.2197C7.82098 18.3603 7.9 18.5511 7.9 18.75C7.9 18.9489 7.82098 19.1397 7.68033 19.2803C7.53968 19.421 7.34891 19.5 7.15 19.5H7.117C6.025 19.5 5.159 19.5 4.462 19.443C3.748 19.385 3.145 19.263 2.594 18.983C1.70014 18.5276 0.973414 17.8009 0.518 16.907C0.237 16.355 0.115 15.752 0.0569999 15.038C-7.82311e-08 14.341 0 13.475 0 12.383V12.35C0 12.1511 0.0790175 11.9603 0.21967 11.8197C0.360322 11.679 0.551088 11.6 0.75 11.6ZM18.75 11.6C18.9489 11.6 19.1397 11.679 19.2803 11.8197C19.421 11.9603 19.5 12.1511 19.5 12.35V12.383C19.5 13.475 19.5 14.341 19.443 15.038C19.385 15.752 19.263 16.355 18.983 16.907C18.5274 17.8005 17.8007 18.5268 16.907 18.982C16.355 19.263 15.752 19.385 15.038 19.443C14.341 19.5 13.475 19.5 12.383 19.5H12.35C12.1511 19.5 11.9603 19.421 11.8197 19.2803C11.679 19.1397 11.6 18.9489 11.6 18.75C11.6 18.5511 11.679 18.3603 11.8197 18.2197C11.9603 18.079 12.1511 18 12.35 18C13.483 18 14.287 18 14.916 17.948C15.536 17.898 15.921 17.801 16.226 17.646C16.8374 17.3344 17.3344 16.8374 17.646 16.226C17.801 15.921 17.897 15.536 17.948 14.916C17.999 14.286 18 13.482 18 12.35C18 12.1511 18.079 11.9603 18.2197 11.8197C18.3603 11.679 18.5511 11.6 18.75 11.6ZM6.22 13.72C6.36063 13.5795 6.55125 13.5007 6.75 13.5007C6.94875 13.5007 7.13937 13.5795 7.28 13.72C7.858 14.297 8.774 14.625 9.75 14.625C10.726 14.625 11.642 14.297 12.22 13.72C12.2887 13.6463 12.3715 13.5872 12.4635 13.5462C12.5555 13.5052 12.6548 13.4832 12.7555 13.4814C12.8562 13.4796 12.9562 13.4982 13.0496 13.5359C13.143 13.5736 13.2278 13.6297 13.299 13.701C13.3703 13.7722 13.4264 13.857 13.4641 13.9504C13.5018 14.0438 13.5204 14.1438 13.5186 14.2445C13.5168 14.3452 13.4948 14.4445 13.4538 14.5365C13.4128 14.6285 13.3537 14.7113 13.28 14.78C12.358 15.703 11.024 16.125 9.75 16.125C8.476 16.125 7.142 15.703 6.22 14.78C6.07955 14.6394 6.00066 14.4488 6.00066 14.25C6.00066 14.0512 6.07955 13.8606 6.22 13.72Z" fill="white"/>
</svg>
