<svg width="22" height="17" viewBox="0 0 22 17" fill="none" xmlns="http://www.w3.org/2000/svg">
<path d="M9 1H2C1.73478 1 1.48043 1.10536 1.29289 1.29289C1.10536 1.48043 1 1.73478 1 2V15C1 15.2652 1.10536 15.5196 1.29289 15.7071C1.48043 15.8946 1.73478 16 2 16H20C20.2652 16 20.5196 15.8946 20.7071 15.7071C20.8946 15.5196 21 15.2652 21 15V13.75" stroke="#9E6D09" stroke-width="2" stroke-linecap="round" stroke-linejoin="round"/>
<path d="M4 7.5H8M4 11.5H16" stroke="#9E6D09" stroke-width="2" stroke-linecap="round"/>
<path d="M16 7C17.6569 7 19 5.65685 19 4C19 2.34315 17.6569 1 16 1C14.3431 1 13 2.34315 13 4C13 5.65685 14.3431 7 16 7Z" stroke="#9E6D09" stroke-width="2" stroke-linecap="round" stroke-linejoin="round"/>
<path d="M21.0001 10.2095C20.0236 8.301 18.0001 7 16.0001 7C14.0001 7 13.0036 7.5665 11.9751 8.5" stroke="#9E6D09" stroke-width="2" stroke-linecap="round" stroke-linejoin="round"/>
</svg>
