<svg width="23" height="22" viewBox="0 0 23 22" fill="none" xmlns="http://www.w3.org/2000/svg">
<path d="M0 8.91C0.478591 6.34333 1.72587 4.21667 3.74185 2.53C5.75782 0.843333 8.12759 0 10.8511 0C12.2133 0 13.4974 0.22 14.7034 0.66C15.9095 1.1 16.9907 1.72333 17.9472 2.53C17.6895 3.00667 17.4826 3.41477 17.3265 3.7543C17.1704 4.09383 17.0644 4.4099 17.0084 4.7025C16.1985 3.9325 15.2689 3.3231 14.2197 2.8743C13.1705 2.4255 12.0476 2.20073 10.8511 2.2C8.992 2.2 7.32613 2.7181 5.85354 3.7543C4.38095 4.7905 3.31333 6.1149 2.65066 7.7275C2.15366 7.70917 1.67065 7.80083 1.20163 8.0025C0.732613 8.20417 0.332069 8.50667 0 8.91ZM10.8511 22C8.12685 22 5.75709 21.1567 3.74185 19.47C1.72661 17.7833 0.479328 15.6567 0 13.09C0.312925 13.4933 0.704266 13.8006 1.17402 14.0118C1.64378 14.223 2.13599 14.3191 2.65066 14.3C3.31333 15.9133 4.38095 17.2333 5.85354 18.26C7.32613 19.2867 8.992 19.8 10.8511 19.8C13.2993 19.8 15.3841 18.9431 17.1056 17.2293C18.8271 15.5155 19.6874 13.4391 19.6867 11C19.6867 10.6883 19.6727 10.3767 19.6447 10.065C19.6167 9.75333 19.5663 9.44167 19.4934 9.13C19.6959 9.20333 19.9031 9.25833 20.1152 9.295C20.3273 9.33167 20.5526 9.35 20.7911 9.35C20.9568 9.35 21.1224 9.34083 21.2881 9.3225C21.4538 9.30417 21.6102 9.27667 21.7575 9.24C21.7943 9.53333 21.8267 9.82227 21.8547 10.1068C21.8827 10.3913 21.8963 10.6891 21.8956 11C21.8956 12.5217 21.6055 13.9517 21.0253 15.29C20.4451 16.6283 19.6583 17.7925 18.6651 18.7825C17.6718 19.7725 16.5029 20.5564 15.1585 21.1343C13.814 21.7122 12.3782 22.0007 10.8511 22ZM6.87515 10.56L9.19448 8.25L6.84754 5.9125L5.68787 7.0675L6.87515 8.2225L5.68787 9.405L6.87515 10.56ZM20.7911 7.7C20.1837 7.7 19.6638 7.48477 19.2316 7.0543C18.7994 6.62383 18.583 6.10573 18.5822 5.5C18.5822 5.005 18.7203 4.4781 18.9964 3.9193C19.2725 3.3605 19.8707 2.42073 20.7911 1.1C21.7115 2.42 22.3097 3.35977 22.5858 3.9193C22.8619 4.47883 23 5.00573 23 5.5C23 6.105 22.7839 6.6231 22.3517 7.0543C21.9195 7.4855 21.3993 7.70073 20.7911 7.7ZM14.8547 10.5875L16.042 9.405L14.8547 8.2225L16.0144 7.0675L14.8547 5.9125L12.5078 8.25L14.8547 10.5875ZM10.8511 12.65C10.3725 12.65 9.90758 12.705 9.45623 12.815C9.00488 12.925 8.57709 13.0808 8.17287 13.2825L4.22449 11C4.22449 10.7067 4.15086 10.4317 4.0036 10.175C3.85634 9.91833 3.65386 9.71667 3.39616 9.57C2.9912 9.35 2.57261 9.29977 2.14041 9.4193C1.7082 9.53883 1.37208 9.79073 1.13205 10.175C0.911165 10.5783 0.860728 10.9956 0.980744 11.4268C1.10076 11.858 1.35368 12.1924 1.7395 12.43C1.9972 12.5767 2.27331 12.65 2.56783 12.65C2.86234 12.65 3.13846 12.5767 3.39616 12.43L6.68187 14.3275C6.36895 14.6392 6.08805 14.9739 5.83918 15.3318C5.59032 15.6897 5.38342 16.0791 5.21849 16.5H7.04082C7.42737 15.84 7.95198 15.3083 8.61465 14.905C9.27731 14.5017 10.0228 14.3 10.8511 14.3C11.6795 14.3 12.425 14.5017 13.0876 14.905C13.7503 15.3083 14.2749 15.84 14.6615 16.5H16.4838C16.042 15.3633 15.3193 14.4375 14.3158 13.7225C13.3122 13.0075 12.1573 12.65 10.8511 12.65Z" fill="#E81D1D"/>
</svg>
