<svg width="21" height="19" viewBox="0 0 21 19" fill="none" xmlns="http://www.w3.org/2000/svg">
<path d="M17.625 3.34783V8.82609M17.625 8.82609L20 6.47826M17.625 8.82609L15.25 6.47826M1 19V18.2174C1 16.5569 1.66726 14.9644 2.85499 13.7903C4.04272 12.6161 5.65363 11.9565 7.33333 11.9565H8.91667C10.5964 11.9565 12.2073 12.6161 13.395 13.7903C14.5827 14.9644 15.25 16.5569 15.25 18.2174V19M12.0833 4.91304C12.0833 5.95085 11.6663 6.94615 10.924 7.67998C10.1816 8.41382 9.17482 8.82609 8.125 8.82609C7.07518 8.82609 6.06837 8.41382 5.32604 7.67998C4.5837 6.94615 4.16667 5.95085 4.16667 4.91304C4.16667 3.87524 4.5837 2.87994 5.32604 2.1461C6.06837 1.41227 7.07518 1 8.125 1C9.17482 1 10.1816 1.41227 10.924 2.1461C11.6663 2.87994 12.0833 3.87524 12.0833 4.91304Z" stroke="#0095FF" stroke-linejoin="round"/>
</svg>
