<svg width="327" height="221" viewBox="0 0 327 221" fill="none" xmlns="http://www.w3.org/2000/svg">
<g clip-path="url(#clip0_40_5)">
<path d="M160.675 148.829C160.265 149.062 159.862 149.3 159.459 149.546C154.899 159.803 152.091 170.751 151.154 181.935C151.042 183.229 150.96 184.521 150.907 185.813C150.485 195.498 151.511 205.192 153.95 214.574C154.079 215.068 154.211 215.56 154.346 216.05C154.443 216.402 154.542 216.757 154.651 217.107C154.774 217.289 154.895 217.467 155.017 217.646C155.025 217.654 155.033 217.667 155.042 217.675C155.09 217.747 155.139 217.819 155.183 217.89C155.393 218.196 155.606 218.501 155.816 218.807L155.628 218.812L155.159 218.823L155.161 218.826C155.318 218.829 155.479 218.83 155.638 218.828C155.695 218.831 155.758 218.835 155.817 218.832C155.869 218.833 155.925 218.832 155.977 218.833C162.731 218.92 169.649 218.859 175.898 216.346C182.439 213.714 188.139 207.685 188.143 200.64C188.141 199.717 188.038 198.797 187.835 197.897C187.751 197.521 187.648 197.151 187.536 196.781C186.859 194.517 185.591 192.474 183.862 190.862C182.133 189.25 180.006 188.128 177.7 187.61C175.393 187.092 172.99 187.198 170.738 187.916C168.485 188.634 166.465 189.939 164.885 191.696C167.015 184.536 175.068 181.16 182.278 179.2C189.493 177.241 197.604 175.215 201.505 168.843C203.682 165.297 203.9 161.073 202.73 157.118C202.694 156.999 202.656 156.878 202.615 156.758C201.128 152.1 197.938 148.175 193.681 145.766C185.699 141.411 175.747 142.438 167.26 145.702C164.989 146.577 162.788 147.622 160.675 148.829Z" fill="#2CD097"/>
<path d="M182.144 196.596C175.72 196.928 169.574 199.318 164.614 203.412C160.388 206.939 157.189 211.539 155.355 216.727C155.248 217.024 155.15 217.321 155.057 217.619C154.908 217.305 154.763 216.984 154.621 216.666C154.529 216.463 154.435 216.256 154.346 216.05C154.443 216.402 154.542 216.757 154.651 217.107C154.774 217.289 154.895 217.467 155.016 217.646C155.025 217.654 155.032 217.667 155.041 217.675C155.09 217.747 155.139 217.819 155.183 217.89C155.393 218.196 155.606 218.501 155.815 218.807L155.628 218.812L155.159 218.823L155.161 218.826C155.318 218.829 155.479 218.83 155.637 218.828C155.695 218.831 155.758 218.835 155.817 218.832C155.84 218.742 155.868 218.653 155.896 218.563C157.825 211.844 162.122 206.05 167.993 202.251C173.864 198.452 180.912 196.906 187.835 197.897C187.75 197.521 187.647 197.151 187.536 196.781C185.748 196.562 183.944 196.5 182.144 196.596Z" fill="white"/>
<path d="M161.947 168.991C159.302 170.812 156.937 173.009 154.928 175.513C153.879 176.849 152.958 178.279 152.175 179.786C151.805 180.484 151.464 181.205 151.154 181.935C151.042 183.229 150.96 184.521 150.907 185.813C151.184 184.846 151.513 183.894 151.891 182.962C152.089 182.45 152.307 181.949 152.536 181.454C155.108 175.913 159.537 171.634 164.687 168.452C170.205 165.047 176.372 162.572 182.592 160.797C188.967 158.968 195.543 157.926 202.171 157.697C202.321 157.691 202.462 157.627 202.566 157.519C202.67 157.411 202.729 157.267 202.729 157.118C202.74 156.987 202.699 156.858 202.615 156.758C202.57 156.711 202.515 156.675 202.454 156.652C202.393 156.63 202.328 156.623 202.263 156.631C201.445 156.659 200.629 156.691 199.812 156.745C193.016 157.171 186.3 158.441 179.818 160.525C173.561 162.528 167.341 165.202 161.947 168.991Z" fill="white"/>
<path d="M196.815 139.169C198.066 139.169 199.079 138.155 199.079 136.906C199.079 135.656 198.066 134.643 196.815 134.643C195.565 134.643 194.551 135.656 194.551 136.906C194.551 138.155 195.565 139.169 196.815 139.169Z" fill="#2CD097"/>
<path d="M147.854 220.984H12.1333C8.9165 220.98 5.83244 219.701 3.55778 217.428C1.28313 215.154 0.00363217 212.072 0 208.856V12.1274C0.00363217 8.91209 1.28313 5.82956 3.55778 3.55603C5.83244 1.28249 8.9165 0.00363038 12.1333 0H147.854C151.071 0.00363038 154.155 1.28249 156.43 3.55603C158.705 5.82956 159.984 8.91209 159.988 12.1274V208.856C159.984 212.072 158.705 215.154 156.43 217.428C154.155 219.701 151.071 220.98 147.854 220.984Z" fill="#3F3D56"/>
<path d="M148.093 213.246H11.8945C10.9029 213.245 9.95222 212.851 9.25104 212.15C8.54985 211.449 8.15543 210.499 8.1543 209.508V11.4759C8.15543 10.4848 8.54985 9.53459 9.25104 8.83375C9.95222 8.13291 10.9029 7.73868 11.8945 7.73755H148.093C149.085 7.73868 150.036 8.13291 150.737 8.83375C151.438 9.53459 151.832 10.4848 151.834 11.4759V209.508C151.832 210.499 151.438 211.449 150.737 212.15C150.036 212.851 149.085 213.245 148.093 213.246Z" fill="white"/>
<path d="M79.4777 4.74571C80.0478 4.74571 80.5099 4.28382 80.5099 3.71404C80.5099 3.14427 80.0478 2.68237 79.4777 2.68237C78.9077 2.68237 78.4456 3.14427 78.4456 3.71404C78.4456 4.28382 78.9077 4.74571 79.4777 4.74571Z" fill="white"/>
<path d="M141.446 153.968H18.5415C18.0601 153.967 17.5986 153.776 17.2582 153.436C16.9178 153.096 16.7264 152.634 16.7258 152.153V42.4311C16.7264 41.9499 16.9178 41.4887 17.2582 41.1485C17.5986 40.8082 18.0601 40.6169 18.5415 40.6163H141.446C141.928 40.6169 142.389 40.8082 142.729 41.1485C143.07 41.4887 143.261 41.9499 143.262 42.4311V152.153C143.261 152.634 143.07 153.096 142.729 153.436C142.389 153.776 141.928 153.967 141.446 153.968Z" fill="#F0F0F0"/>
<path d="M131.39 119.069H28.8767C28.3953 119.069 27.9338 118.877 27.5934 118.537C27.2531 118.197 27.0616 117.735 27.061 117.254V54.1572C27.0616 53.676 27.2531 53.2147 27.5934 52.8745C27.9338 52.5343 28.3953 52.343 28.8767 52.3424H131.39C131.872 52.343 132.333 52.5343 132.674 52.8745C133.014 53.2148 133.205 53.676 133.206 54.1572V117.254C133.205 117.735 133.014 118.197 132.674 118.537C132.333 118.877 131.872 119.068 131.39 119.069Z" fill="white"/>
<path d="M107.787 144.196H30.6923C29.7292 144.196 28.8056 143.814 28.1246 143.133C27.4436 142.453 27.061 141.529 27.061 140.567C27.061 139.604 27.4436 138.681 28.1246 138C28.8056 137.32 29.7292 136.937 30.6923 136.937H107.787C108.75 136.937 109.674 137.32 110.355 138C111.036 138.681 111.418 139.604 111.418 140.567C111.418 141.529 111.036 142.453 110.355 143.133C109.674 143.814 108.75 144.196 107.787 144.196Z" fill="white"/>
<path d="M82.9268 131.772H30.6923C29.7292 131.772 28.8056 131.39 28.1246 130.709C27.4436 130.029 27.061 129.105 27.061 128.143C27.061 127.18 27.4436 126.257 28.1246 125.576C28.8056 124.896 29.7292 124.513 30.6923 124.513H82.9268C83.8899 124.513 84.8135 124.896 85.4945 125.576C86.1755 126.257 86.5581 127.18 86.5581 128.143C86.5581 129.105 86.1755 130.029 85.4945 130.709C84.8135 131.39 83.8899 131.772 82.9268 131.772Z" fill="white"/>
<path d="M88.2734 119.326C88.3991 119.287 88.522 119.248 88.6477 119.209C93.6619 117.596 98.0107 114.388 101.031 110.075C104.051 105.762 105.578 100.579 105.377 95.3183C105.283 92.7926 104.787 90.298 103.907 87.9281C102.499 84.1087 100.146 80.708 97.067 78.0435C93.9882 75.3791 90.2841 73.5377 86.3006 72.6911C82.3171 71.8446 78.1839 72.0205 74.2869 73.2026C70.3898 74.3846 66.8558 76.5341 64.0148 79.4506C61.1737 82.3671 59.1182 85.9554 58.04 89.8808C56.9619 93.8061 56.8963 97.9404 57.8492 101.898C58.8022 105.856 60.7428 109.507 63.4898 112.512C66.2368 115.517 69.7007 117.778 73.5583 119.083C73.684 119.128 73.8125 119.17 73.9382 119.209H80.8516L88.2734 119.326Z" fill="#2F2E41"/>
<path d="M74.3152 114.214L73.558 119.083L73.5387 119.209H66.1282L66.7119 115.456L67.1085 112.91L74.3152 114.214Z" fill="#2F2E41"/>
<path d="M88.2731 119.326L88.2927 119.209L88.7258 116.821L81.519 115.518L80.8516 119.209L88.2731 119.326Z" fill="#2F2E41"/>
<path d="M82.9744 98.6022C87.5241 98.6022 91.2124 94.9158 91.2124 90.3683C91.2124 85.8208 87.5241 82.1343 82.9744 82.1343C78.4246 82.1343 74.7363 85.8208 74.7363 90.3683C74.7363 94.9158 78.4246 98.6022 82.9744 98.6022Z" fill="white"/>
<path d="M86.3603 90.1616C87.8768 90.1616 89.1063 88.9327 89.1063 87.4169C89.1063 85.9011 87.8768 84.6722 86.3603 84.6722C84.8437 84.6722 83.6143 85.9011 83.6143 87.4169C83.6143 88.9327 84.8437 90.1616 86.3603 90.1616Z" fill="#3F3D56"/>
<path d="M62.2723 70.0518C61.9098 61.1326 69.6007 53.5779 79.4504 53.178C89.3001 52.7781 97.5786 59.6844 97.9411 68.6036C98.3036 77.5228 91.4568 79.5494 81.6072 79.9493C71.7575 80.3492 62.6348 78.971 62.2723 70.0518Z" fill="#2CD097"/>
<path d="M104.389 95.5582C110.877 94.0718 115.758 91.2165 115.291 89.1808C114.824 87.145 109.186 86.6997 102.698 88.1861C96.2104 89.6725 91.3294 92.5277 91.7962 94.5635C92.2631 96.5992 97.901 97.0445 104.389 95.5582Z" fill="#2F2E41"/>
<path d="M57.0737 103.423C63.5615 101.936 68.4425 99.0811 67.9757 97.0454C67.5088 95.0097 61.8709 94.5643 55.383 96.0507C48.8952 97.5371 44.0142 100.392 44.4811 102.428C44.9479 104.464 50.5858 104.909 57.0737 103.423Z" fill="#2F2E41"/>
<path d="M74.6669 105.756C74.4061 107.188 74.7253 108.665 75.5543 109.862C76.3833 111.059 77.654 111.878 79.0871 112.139C80.5201 112.4 81.9981 112.08 83.1958 111.252C84.3934 110.423 85.2128 109.153 85.4735 107.721L85.4752 107.711C86.0155 104.728 83.7079 103.673 80.7232 103.133C77.7386 102.592 75.2072 102.773 74.6669 105.756Z" fill="white"/>
<path d="M129.083 137.495C128.864 137.275 128.603 137.099 128.316 136.979C128.029 136.859 127.721 136.797 127.41 136.796C127.099 136.795 126.79 136.856 126.502 136.974C126.214 137.092 125.953 137.266 125.732 137.486C125.511 137.705 125.336 137.966 125.216 138.253C125.097 138.54 125.035 138.848 125.034 139.159C125.034 139.47 125.094 139.778 125.213 140.066C125.331 140.354 125.506 140.615 125.725 140.835L125.734 140.844L129.083 144.192L132.433 140.844C132.876 140.399 133.123 139.798 133.123 139.171C133.122 138.544 132.872 137.943 132.429 137.5C131.985 137.057 131.384 136.807 130.757 136.806C130.13 136.806 129.528 137.053 129.083 137.495Z" fill="#2CD097"/>
<path d="M200.774 55.0011C200.331 54.556 199.729 54.3051 199.101 54.3036C198.473 54.3021 197.87 54.5501 197.424 54.993C196.979 55.4359 196.728 56.0375 196.726 56.6655C196.725 57.2934 196.973 57.8962 197.416 58.3413L197.424 58.3494L200.774 61.6977L204.124 58.3494C204.566 57.905 204.814 57.3034 204.813 56.6766C204.812 56.0499 204.563 55.449 204.119 55.0058C203.676 54.5626 203.075 54.3132 202.448 54.3123C201.821 54.3115 201.219 54.5592 200.774 55.0011Z" fill="#2CD097"/>
<path d="M205.303 40.048C205.032 39.7045 204.686 39.4268 204.291 39.2354C203.897 39.044 203.465 38.944 203.027 38.9428C202.588 38.9415 202.155 39.0391 201.76 39.2282C201.365 39.4174 201.017 39.6932 200.743 40.0351C200.131 40.7832 199.795 41.7194 199.793 42.686C199.791 43.6525 200.123 44.5902 200.732 45.3407L200.743 45.3536L205.303 50.6592L209.864 45.3536C210.473 44.603 210.804 43.6653 210.802 42.6987C210.8 41.7322 210.464 40.796 209.852 40.048C209.579 39.7073 209.233 39.4322 208.839 39.2432C208.445 39.0542 208.014 38.9561 207.578 38.9561C207.141 38.9561 206.71 39.0542 206.316 39.2432C205.923 39.4322 205.576 39.7073 205.303 40.048Z" fill="#2CD097"/>
<path d="M271.173 216.889H266.948L264.937 200.597L271.174 200.598L271.173 216.889Z" fill="#CA8B7E"/>
<path d="M272.251 220.984L258.625 220.983V220.811C258.625 219.405 259.184 218.057 260.179 217.063C261.173 216.068 262.522 215.51 263.929 215.51L272.251 215.51L272.251 220.984Z" fill="#2F2E41"/>
<path d="M232.223 216.889H227.997L225.986 200.597L232.223 200.598L232.223 216.889Z" fill="#CA8B7E"/>
<path d="M233.3 220.984L219.674 220.983V220.811C219.674 219.405 220.233 218.057 221.228 217.063C222.222 216.068 223.571 215.51 224.978 215.51L233.3 215.51L233.3 220.984Z" fill="#2F2E41"/>
<path d="M237.325 86.0033L234.567 103.574L260.765 103.919L257.317 87.037L237.325 86.0033Z" fill="#CA8B7E"/>
<path d="M235.328 99.2841L226.984 121.49L225.95 213.514H233.016L249.906 139.577L265.418 211.584H272.312L267.486 130.62C267.486 130.62 268.909 114.369 261.626 104.78L259.853 99.6612L235.328 99.2841Z" fill="#2F2E41"/>
<path d="M271.117 116.595C270.388 116.396 269.711 116.04 269.134 115.551C268.557 115.063 268.094 114.454 267.779 113.767C267.463 113.081 267.301 112.334 267.306 111.578C267.31 110.822 267.48 110.077 267.804 109.394L256.659 73.0777L264.856 71.4536L275.049 107.051C276.161 107.671 277.007 108.677 277.426 109.878C277.845 111.079 277.809 112.392 277.324 113.569C276.84 114.745 275.94 115.703 274.796 116.26C273.652 116.818 272.343 116.937 271.117 116.595Z" fill="#CA8B7E"/>
<path d="M256.369 95.7072L238.31 95.3588C237.794 95.3478 237.296 95.1681 236.892 94.847C236.487 94.526 236.2 94.0813 236.073 93.5812C235.104 89.7503 232.975 79.7662 234.104 69.822C234.327 67.8957 234.935 66.0335 235.89 64.3458C236.846 62.6581 238.13 61.1791 239.668 59.9964C241.205 58.8136 242.965 57.9511 244.842 57.4598C246.719 56.9686 248.675 56.8586 250.595 57.1363C252.621 57.4262 254.562 58.1408 256.292 59.2334C258.022 60.3259 259.501 61.7717 260.632 63.4758C261.764 65.1799 262.522 67.1039 262.857 69.1215C263.193 71.1391 263.097 73.2048 262.577 75.1829C260.304 83.811 259.02 89.9836 258.761 93.5297C258.723 94.0424 258.518 94.5285 258.177 94.9137C257.836 95.2989 257.379 95.562 256.874 95.6628C256.724 95.6926 256.572 95.7077 256.419 95.7078C256.402 95.7078 256.385 95.7076 256.369 95.7072Z" fill="#0E4F4B"/>
<path d="M205.967 63.8076C206.076 64.0507 206.165 64.3021 206.234 64.5593L228.838 72.2364L233.205 68.4227L239.825 74.2588L232.75 81.7614C232.178 82.3675 231.425 82.7719 230.604 82.9139C229.783 83.056 228.938 82.9279 228.195 82.549L204.008 70.2002C203.133 70.7364 202.116 70.9938 201.091 70.9381C200.067 70.8824 199.083 70.5162 198.272 69.8883C197.461 69.2603 196.86 68.4004 196.549 67.4228C196.239 66.4452 196.234 65.3963 196.534 64.4157C196.835 63.435 197.427 62.5691 198.232 61.933C199.037 61.2969 200.017 60.9209 201.041 60.8548C202.065 60.7888 203.084 61.036 203.965 61.5634C204.845 62.0909 205.543 62.8736 205.967 63.8076Z" fill="#CA8B7E"/>
<path d="M228.885 71.0121C228.886 70.701 228.955 70.3939 229.087 70.1118C229.218 69.8297 229.409 69.5793 229.646 69.3776L237.922 62.331C238.97 61.1319 240.45 60.3969 242.039 60.2871C243.628 60.1774 245.195 60.7018 246.398 61.7455C247.601 62.7892 248.34 64.2669 248.454 65.8546C248.569 67.4424 248.048 69.0106 247.007 70.2155L241.113 79.3889C240.945 79.6507 240.723 79.8732 240.461 80.0412C240.199 80.2092 239.903 80.3188 239.595 80.3625C239.287 80.4063 238.973 80.3831 238.675 80.2946C238.376 80.206 238.1 80.0543 237.866 79.8496L229.626 72.6561C229.391 72.4515 229.203 72.1987 229.076 71.915C228.948 71.6313 228.883 71.3233 228.885 71.0121Z" fill="#0E4F4B"/>
<path d="M256.16 82.2768C255.884 82.132 255.643 81.9294 255.453 81.683C255.263 81.4366 255.129 81.1521 255.059 80.8489L252.612 70.2609C252.029 68.7793 252.058 67.1271 252.692 65.6667C253.326 64.2063 254.513 63.0568 255.994 62.4704C257.475 61.8839 259.128 61.9083 260.591 62.5382C262.054 63.1682 263.207 64.3523 263.797 65.8308L269.231 75.2842C269.386 75.554 269.481 75.854 269.509 76.1638C269.538 76.4736 269.499 76.786 269.396 77.0796C269.293 77.3731 269.128 77.641 268.912 77.8651C268.696 78.0891 268.434 78.2639 268.144 78.3777L257.961 82.3762C257.671 82.4901 257.361 82.5402 257.05 82.5231C256.739 82.5059 256.435 82.4219 256.16 82.2768Z" fill="#0E4F4B"/>
<path d="M255.726 53.4025C261.093 50.4696 263.066 43.7428 260.132 38.3777C257.198 33.0126 250.468 31.0409 245.1 33.9737C239.732 36.9065 237.759 43.6333 240.694 48.9984C243.628 54.3635 250.358 56.3353 255.726 53.4025Z" fill="#CA8B7E"/>
<path d="M236.983 37.4342H254.571V29.7713C250.711 28.2384 246.933 26.9347 244.649 29.7713C242.616 29.7713 240.666 30.5787 239.228 32.0157C237.79 33.4528 236.983 35.4019 236.983 37.4342Z" fill="#2F2E41"/>
<path d="M255.545 28.4191C266.059 28.4191 269.002 41.5922 269.002 49.0238C269.002 53.1684 267.127 54.6507 264.18 55.1523L263.14 49.6047L260.702 55.391C259.875 55.3951 259.005 55.3791 258.103 55.3624L257.277 53.6615L255.434 55.3319C248.053 55.3429 242.087 56.4183 242.087 49.0238C242.087 41.5922 244.668 28.4191 255.545 28.4191Z" fill="#2F2E41"/>
<path d="M326.623 221H119.852C119.752 221 119.656 220.96 119.585 220.89C119.514 220.819 119.474 220.723 119.474 220.623C119.474 220.523 119.514 220.427 119.585 220.356C119.656 220.285 119.752 220.246 119.852 220.246H326.623C326.723 220.246 326.819 220.285 326.889 220.356C326.96 220.427 327 220.523 327 220.623C327 220.723 326.96 220.819 326.889 220.89C326.819 220.96 326.723 221 326.623 221Z" fill="#3F3D56"/>
</g>
<defs>
<clipPath id="clip0_40_5">
<rect width="327" height="221" fill="white"/>
</clipPath>
</defs>
</svg>
