<svg width="291" height="235" viewBox="0 0 291 235" fill="none" xmlns="http://www.w3.org/2000/svg">
<path d="M165.428 0H91.8167C86.0419 0.00625267 80.5055 2.30145 76.4221 6.38199C72.3387 10.4625 70.042 15.9952 70.0357 21.7659V28.4149C69.8846 28.3733 69.7259 28.3674 69.5721 28.3976C69.4184 28.4278 69.2737 28.4934 69.1496 28.589C69.0256 28.6847 68.9254 28.8079 68.8572 28.9489C68.789 29.0899 68.7545 29.2448 68.7564 29.4014V34.5144C68.7545 34.671 68.7891 34.8259 68.8573 34.9669C68.9256 35.1078 69.0257 35.231 69.1497 35.3267C69.2738 35.4223 69.4184 35.4879 69.5722 35.5181C69.7259 35.5484 69.8846 35.5425 70.0357 35.5009V43.2422C69.8846 43.2006 69.7259 43.1946 69.5721 43.2249C69.4184 43.2551 69.2737 43.3206 69.1496 43.4163C69.0256 43.512 68.9254 43.6352 68.8572 43.7762C68.789 43.9172 68.7545 44.0721 68.7564 44.2287V57.0115C68.7545 57.1681 68.789 57.323 68.8572 57.464C68.9254 57.605 69.0256 57.7282 69.1496 57.8239C69.2737 57.9196 69.4184 57.9851 69.5721 58.0153C69.7259 58.0456 69.8846 58.0396 70.0357 57.998V62.6721C69.8846 62.6305 69.7259 62.6245 69.5721 62.6547C69.4184 62.685 69.2737 62.7505 69.1496 62.8462C69.0256 62.9419 68.9254 63.0651 68.8572 63.2061C68.789 63.347 68.7545 63.502 68.7564 63.6586V76.4414C68.7545 76.598 68.789 76.7529 68.8572 76.8939C68.9254 77.0349 69.0256 77.1581 69.1496 77.2538C69.2737 77.3495 69.4184 77.415 69.5721 77.4452C69.7259 77.4754 69.8846 77.4695 70.0357 77.4279V212.416C70.042 218.187 72.3389 223.72 76.4222 227.8C80.5056 231.881 86.042 234.176 91.8167 234.182H165.428C171.203 234.176 176.74 231.881 180.823 227.8C184.906 223.72 187.203 218.187 187.209 212.416V21.7659C187.203 15.9952 184.906 10.4625 180.823 6.38199C176.74 2.30145 171.203 0.00625267 165.428 0ZM182.604 212.416C182.599 216.967 180.787 221.329 177.568 224.547C174.348 227.765 169.982 229.575 165.428 229.58H91.8167C87.2631 229.575 82.8974 227.765 79.6775 224.547C76.4576 221.329 74.6465 216.967 74.6415 212.416V21.7659C74.6465 17.2155 76.4576 12.8528 79.6775 9.63514C82.8974 6.41748 87.2631 4.60761 91.8167 4.60262H165.428C169.982 4.60761 174.348 6.41748 177.568 9.63514C180.787 12.8528 182.599 17.2155 182.604 21.7659V212.416Z" fill="#3F3D56"/>
<path d="M165.428 232.136H91.8167C86.5848 232.13 81.5688 230.051 77.8693 226.354C74.1698 222.657 72.0889 217.645 72.0833 212.416V21.7651C72.0889 16.5368 74.1698 11.5243 77.8693 7.82733C81.5688 4.13038 86.5848 2.05095 91.8167 2.04529H165.428C170.66 2.05095 175.676 4.13038 179.376 7.82733C183.075 11.5243 185.156 16.5368 185.162 21.7651V212.416C185.156 217.645 183.075 222.657 179.376 226.354C175.676 230.051 170.66 232.13 165.428 232.136Z" fill="#E6E6E6"/>
<path d="M167.247 229.068H89.9976C86.4686 229.064 83.0851 227.662 80.5897 225.168C78.0943 222.674 76.6907 219.293 76.687 215.767V18.411C76.6907 14.8844 78.0942 11.5032 80.5896 9.00954C83.0851 6.51583 86.4686 5.11327 89.9976 5.10962H100.072C100.655 5.11029 101.214 5.3421 101.627 5.75421C102.039 6.16632 102.271 6.72506 102.272 7.30786C102.274 9.0296 102.959 10.6803 104.177 11.8977C105.396 13.1152 107.047 13.8 108.77 13.8019H147.451C149.174 13.8 150.826 13.1152 152.044 11.8977C153.263 10.6803 153.948 9.0296 153.95 7.30786C153.951 6.72506 154.183 6.16632 154.595 5.75421C155.007 5.3421 155.566 5.11029 156.15 5.10962H167.247C170.776 5.11327 174.16 6.51583 176.655 9.00954C179.151 11.5032 180.554 14.8844 180.558 18.411V215.767C180.554 219.293 179.151 222.674 176.655 225.168C174.16 227.662 170.776 229.064 167.247 229.068Z" fill="white"/>
<path d="M131.949 9.58713H122.738C122.467 9.58713 122.207 9.4794 122.015 9.28762C121.823 9.09583 121.715 8.83572 121.715 8.5645C121.715 8.29329 121.823 8.03317 122.015 7.84139C122.207 7.64961 122.467 7.54187 122.738 7.54187H131.948C132.22 7.54187 132.48 7.64961 132.672 7.84139C132.864 8.03317 132.972 8.29329 132.972 8.5645C132.972 8.83572 132.864 9.09583 132.672 9.28762C132.48 9.4794 132.22 9.58713 131.948 9.58713H131.949Z" fill="white"/>
<path d="M138.344 9.33133C138.627 9.33133 138.856 9.10244 138.856 8.82008C138.856 8.53773 138.627 8.30884 138.344 8.30884C138.062 8.30884 137.833 8.53773 137.833 8.82008C137.833 9.10244 138.062 9.33133 138.344 9.33133Z" fill="white"/>
<path d="M183.045 45.0577H74.0981V46.2231H183.045V45.0577Z" fill="#E6E6E6"/>
<path d="M183.045 68.3635H74.0981V69.5289H183.045V68.3635Z" fill="#E6E6E6"/>
<path d="M183.045 116.529H74.0981V117.694H183.045V116.529Z" fill="#E6E6E6"/>
<path d="M183.045 164.694H74.0981V165.859H183.045V164.694Z" fill="#E6E6E6"/>
<path d="M183.045 202.372H74.0981V203.537H183.045V202.372Z" fill="#E6E6E6"/>
<path d="M153.218 45.6404H152.052V117.111H153.218V45.6404Z" fill="#E6E6E6"/>
<path d="M98.678 117.091H97.5118V202.954H98.678V117.091Z" fill="#E6E6E6"/>
<path d="M180.557 140.644H98.095V141.809H180.557V140.644Z" fill="#E6E6E6"/>
<path d="M153.344 202.954H152.177V229.068H153.344V202.954Z" fill="#E6E6E6"/>
<path d="M152.441 92.9233H76.494V94.0887H152.441V92.9233Z" fill="#E6E6E6"/>
<path d="M92.3549 4.37653L91.2792 4.82642L108.465 45.865L109.541 45.4152L92.3549 4.37653Z" fill="#E6E6E6"/>
<path d="M145.285 13.8053H144.119V45.6403H145.285V13.8053Z" fill="#E6E6E6"/>
<path d="M175.354 63.3141C175.354 73.7552 159.201 98.0847 154.479 104.972C154.337 105.18 154.145 105.35 153.922 105.468C153.699 105.585 153.451 105.647 153.199 105.647C152.946 105.647 152.698 105.585 152.475 105.468C152.252 105.35 152.061 105.18 151.918 104.972C147.197 98.0847 131.043 73.7552 131.043 63.3141C131.043 57.4421 133.378 51.8105 137.533 47.6584C141.688 43.5062 147.323 41.1736 153.199 41.1736C159.075 41.1736 164.711 43.5062 168.866 47.6584C173.021 51.8105 175.355 57.4421 175.355 63.3141H175.354Z" fill="#2CD097"/>
<path d="M153.198 73.0249C159.424 73.0249 164.471 67.9815 164.471 61.7603C164.471 55.539 159.424 50.4957 153.198 50.4957C146.973 50.4957 141.926 55.539 141.926 61.7603C141.926 67.9815 146.973 73.0249 153.198 73.0249Z" fill="white"/>
<path d="M152.46 117.446L109.771 202.68L110.814 203.201L153.503 117.967L152.46 117.446Z" fill="#E6E6E6"/>
<path d="M290.771 234.612C290.77 234.702 290.734 234.788 290.67 234.852C290.606 234.916 290.519 234.952 290.429 234.952H0.350292C0.304771 234.953 0.259451 234.945 0.217012 234.929C0.174573 234.912 0.135879 234.887 0.103218 234.856C0.0705572 234.824 0.0445921 234.786 0.026863 234.744C0.00913382 234.702 0 234.657 0 234.612C0 234.566 0.00913382 234.521 0.026863 234.479C0.0445921 234.437 0.0705572 234.399 0.103218 234.368C0.135879 234.336 0.174573 234.311 0.217012 234.295C0.259451 234.278 0.304771 234.27 0.350292 234.272H290.429C290.519 234.272 290.606 234.307 290.67 234.371C290.734 234.435 290.77 234.521 290.771 234.612Z" fill="#CCCCCC"/>
<path d="M153.198 121.966C155.989 121.966 158.251 119.706 158.251 116.917C158.251 114.128 155.989 111.868 153.198 111.868C150.407 111.868 148.145 114.128 148.145 116.917C148.145 119.706 150.407 121.966 153.198 121.966Z" fill="#2CD097"/>
<path d="M224.338 61.7064C222.227 64.5171 212.961 67.8056 210.298 68.7066C210.218 68.7339 210.132 68.7412 210.048 68.7278C209.964 68.7145 209.885 68.6809 209.817 68.6299C209.749 68.579 209.695 68.5122 209.658 68.4355C209.622 68.3587 209.605 68.2743 209.609 68.1895C209.73 65.3827 210.299 55.5728 212.409 52.7624C212.989 51.958 213.723 51.2772 214.568 50.7598C215.414 50.2423 216.355 49.8987 217.335 49.749C218.316 49.5993 219.316 49.6465 220.278 49.8878C221.24 50.1291 222.144 50.5598 222.937 51.1545C223.73 51.7493 224.397 52.4962 224.898 53.3515C225.399 54.2069 225.724 55.1535 225.855 56.1359C225.985 57.1184 225.918 58.1169 225.657 59.0732C225.397 60.0294 224.948 60.9242 224.337 61.705L224.338 61.7064Z" fill="#F2F2F2"/>
<path d="M218.688 60.6075C220.783 60.6075 222.481 58.9102 222.481 56.8164C222.481 54.7227 220.783 53.0254 218.688 53.0254C216.593 53.0254 214.894 54.7227 214.894 56.8164C214.894 58.9102 216.593 60.6075 218.688 60.6075Z" fill="white"/>
<path d="M207.539 73.363C208.478 73.363 209.24 72.6021 209.24 71.6636C209.24 70.7251 208.478 69.9642 207.539 69.9642C206.6 69.9642 205.839 70.7251 205.839 71.6636C205.839 72.6021 206.6 73.363 207.539 73.363Z" fill="#F2F2F2"/>
<path d="M39.3822 138.802C42.4875 143.543 42.3885 159.388 42.2931 163.918C42.2904 164.055 42.2543 164.189 42.1879 164.309C42.1216 164.428 42.027 164.53 41.9124 164.605C41.7978 164.68 41.6666 164.726 41.5302 164.739C41.3938 164.752 41.2563 164.731 41.1297 164.679C36.9368 162.954 22.3663 156.704 19.2607 151.963C18.3852 150.643 17.7795 149.163 17.4784 147.608C17.1773 146.053 17.1868 144.454 17.5063 142.903C17.8257 141.351 18.4489 139.879 19.34 138.569C20.231 137.259 21.3724 136.139 22.6984 135.271C24.0243 134.404 25.5088 133.807 27.0665 133.515C28.6241 133.223 30.2241 133.242 31.7745 133.57C33.3249 133.898 34.7951 134.529 36.1006 135.427C37.406 136.325 38.521 137.472 39.3814 138.802L39.3822 138.802Z" fill="#F2F2F2"/>
<path d="M28.8592 150.79C32.2379 150.79 34.9768 148.053 34.9768 144.676C34.9768 141.3 32.2379 138.563 28.8592 138.563C25.4806 138.563 22.7417 141.3 22.7417 144.676C22.7417 148.053 25.4806 150.79 28.8592 150.79Z" fill="white"/>
<path d="M45.2642 172.463C46.7787 172.463 48.0065 171.236 48.0065 169.723C48.0065 168.209 46.7787 166.982 45.2642 166.982C43.7496 166.982 42.5219 168.209 42.5219 169.723C42.5219 171.236 43.7496 172.463 45.2642 172.463Z" fill="#F2F2F2"/>
<path d="M197.627 86.3749L191.373 86.6173L191.685 94.6531L197.939 94.4107L197.627 86.3749Z" fill="#2CD097"/>
<path d="M169.413 114.519C169.413 114.519 160.752 110.383 160.89 113.955C161.029 117.527 169.621 119.876 169.621 119.876L169.413 114.519Z" fill="#FFB9B9"/>
<path d="M174.166 144.738C174.166 144.738 170.08 154.733 168.57 161.945C167.06 169.157 164.761 179.083 167.718 186.122C170.676 193.162 179.085 213.85 179.172 216.082C179.258 218.314 178.451 220.581 180.238 220.512C182.025 220.442 191.75 217.383 192.145 216.026C192.54 214.67 188.827 211.237 188.827 211.237L179.658 182.529L189.223 163.827L196.122 191.728L197.473 226.55C197.473 226.55 204.105 224.504 205.068 226.255C205.068 226.255 208.039 222.116 208.416 220.313C208.794 218.51 207.013 184.151 207.013 184.151C207.013 184.151 213.1 145.017 208.186 145.207C203.272 145.398 184.024 133.625 174.166 144.738Z" fill="#090814"/>
<path d="M180.168 218.726C180.168 218.726 175.635 228.737 175.205 229.201C174.776 229.666 171.822 234.251 174.056 234.164C176.29 234.078 181.564 231.638 185.446 227.91C189.328 224.183 194.447 217.725 193.983 217.296C193.519 216.867 190.339 215.649 190.339 215.649L180.168 218.726Z" fill="#090814"/>
<path d="M198.28 224.283C198.28 224.283 198.007 228.765 197.183 230.585C196.359 232.406 196.463 235.085 198.696 234.998C200.93 234.911 206.703 233.793 206.703 233.793C206.703 233.793 207.046 231.097 206.582 230.668C206.118 230.239 204.14 225.398 204.982 224.024C205.823 222.65 198.28 224.283 198.28 224.283Z" fill="#090814"/>
<path d="M201.585 78.8444C201.585 78.8444 206.347 86.2608 208.203 87.9773C210.06 89.6939 204.837 93.4731 204.837 93.4731L195.49 94.7295C195.49 94.7295 195.608 86.2299 195.126 85.3545C194.645 84.479 201.585 78.8444 201.585 78.8444Z" fill="#FFB9B9"/>
<path d="M193.461 88.5487C193.461 88.5487 195.387 92.0509 197.173 91.9818C198.96 91.9126 208.205 87.9776 208.599 86.6207C208.993 85.2639 211.66 96.3386 211.66 96.3386L189.043 136.113L183.526 132.303L186.199 108.95L188.394 96.3454L193.461 88.5487Z" fill="#2CD097"/>
<path d="M209.432 124.146C208.53 126.032 207.967 127.998 208.045 130.012C208.048 130.101 208.052 130.19 208.06 130.279C208.274 134.411 209.797 139.19 210.343 142.665C210.74 145.158 210.627 146.978 209.167 147.405C205.628 148.437 209.683 149.174 195.99 153.728C182.296 158.283 179.907 154.352 179.872 153.459C179.837 152.566 181.811 145.782 181.347 145.354C180.883 144.926 174.854 150.971 173.032 150.147C171.21 149.323 172.824 144.789 172.824 144.789C172.824 144.789 176.928 135.241 176.841 133.009C176.755 130.777 183.058 120.249 183.058 120.249L187.345 92.3623C187.345 92.3623 188.994 88.7214 191.21 88.1885C193.427 87.6556 195.266 88.9256 195.266 88.9256L191.557 97.1176L187.643 111.578L188.298 116.918C188.298 116.918 192.848 107.352 195.837 103.659C198.826 99.9666 205.198 91.2245 205.198 91.2245C205.198 91.2245 206.685 86.2085 205.564 84.7094C204.44 83.206 210.248 82.9807 212.724 89.1444C214.037 92.4109 216.168 97.2824 217.502 101.818C218.692 105.836 219.253 109.593 218.075 111.74C216.273 115.019 211.742 119.33 209.432 124.146Z" fill="#D6D6E3"/>
<path opacity="0.1" d="M218.074 111.739C216.273 115.019 211.742 119.332 209.432 124.146C208.829 121.974 208.093 119.726 208.093 119.726C208.093 119.726 205.27 104.634 213.62 100.733C215.003 100.6 216.387 100.986 217.501 101.817C218.69 105.836 219.252 109.592 218.074 111.739Z" fill="black"/>
<path d="M184.928 110.788L177.849 112.85L168.021 113.231L167.01 121.765L183.163 122.928C183.163 122.928 187.195 111.594 184.928 110.788Z" fill="#D6D6E3"/>
<path d="M196.471 139.483C196.471 139.483 187.001 141.053 189.162 143.901C191.324 146.748 199.713 143.754 199.713 143.754L196.471 139.483Z" fill="#FFB9B9"/>
<path opacity="0.1" d="M208.06 130.278C208.274 134.41 209.797 139.189 210.344 142.664C207.327 145.517 204.458 148.035 203.377 148.076C201.143 148.162 197.552 147.854 196.229 148.353C194.907 148.851 194.131 140.386 194.131 140.386C194.131 140.386 194.92 137.673 198.442 136.196C200.819 135.197 205.376 132.485 208.06 130.278Z" fill="black"/>
<path d="M213.516 98.0549C213.516 98.0549 221.076 96.8676 220.668 109.403C220.26 121.938 221.465 129.939 218.424 132.293C215.384 134.648 205.508 145.314 203.273 145.4C201.039 145.486 197.448 145.178 196.125 145.677C194.803 146.175 194.027 137.71 194.027 137.71C194.027 137.71 194.816 134.997 198.338 133.52C201.86 132.043 210.157 126.802 210.089 125.017C210.02 123.231 207.99 117.05 207.99 117.05C207.99 117.05 205.167 101.956 213.516 98.0549Z" fill="#D6D6E3"/>
<path d="M194.918 89.826C200.351 89.826 204.754 85.4255 204.754 79.9971C204.754 74.5687 200.351 70.1681 194.918 70.1681C189.486 70.1681 185.083 74.5687 185.083 79.9971C185.083 85.4255 189.486 89.826 194.918 89.826Z" fill="#FFB9B9"/>
<path d="M188.296 65.9085C188.059 66.1128 187.774 66.2553 187.469 66.3233C187.315 66.3504 187.157 66.3159 187.029 66.2273C186.901 66.1387 186.813 66.0031 186.785 65.8501C186.56 66.3163 186.307 66.8135 185.846 67.0528C185.386 67.2921 184.677 67.0913 184.61 66.5778C184.543 66.9677 184.37 67.3319 184.111 67.6307C183.826 67.9023 183.309 67.971 183.06 67.6658C183.261 68.7645 183.137 69.8947 183.201 71.01C183.264 72.1253 183.562 73.3076 184.405 74.041C185.635 75.1096 187.484 74.8466 189.101 74.6439C189.346 74.5926 189.6 74.6065 189.837 74.6841C190.443 74.942 190.415 75.7845 190.424 76.4422C190.473 77.5966 190.93 78.6962 191.714 79.5457C192.497 80.3952 193.557 80.9396 194.704 81.0823C195.346 81.1812 196.001 81.0214 196.526 80.6379C196.985 80.249 197.22 79.6149 197.746 79.3227C198.602 78.8475 199.64 79.5406 200.266 80.2935C200.892 81.0463 201.509 81.972 202.478 82.1098C203.761 82.292 204.738 80.985 205.217 79.7836C205.878 78.0982 206.194 76.2975 206.148 74.4878C206.102 72.6781 205.693 70.896 204.947 69.2465C202.269 63.4139 193.123 62.4912 188.296 65.9085Z" fill="#090814"/>
</svg>
