<svg width="261" height="260" viewBox="0 0 261 260" fill="none" xmlns="http://www.w3.org/2000/svg">
<path d="M261 259.333C261 259.661 260.736 259.924 260.408 259.924H0.591972C0.263666 259.924 0 259.661 0 259.333C0 259.005 0.263666 258.741 0.591972 258.741H260.408C260.736 258.741 261 259.005 261 259.333Z" fill="#3F3D56"/>
<path d="M180.348 230.546L183.333 242.967L174.379 245.452L172.389 232.037L180.348 230.546Z" fill="#FFB6B6"/>
<path d="M194.775 190.302L185.323 198.252L179.354 207.692L187.81 213.157L202.236 196.761L194.775 190.302Z" fill="#FFB6B6"/>
<path d="M191.79 108.324L199.749 135.153C199.749 135.153 235.069 165.957 231.586 172.416C228.104 178.875 204.724 196.761 204.724 196.761C204.724 196.761 206.459 202.481 201.363 200.118C196.267 197.755 190.795 191.296 190.795 191.296C190.795 191.296 190.795 186.328 193.282 187.322C195.77 188.315 207.211 174.901 207.211 174.901L182.338 152.046V228.467C182.338 228.467 188.308 233.68 182.338 234.101C176.369 234.521 170.897 235.515 170.897 235.515C170.897 235.515 163.932 233.031 166.42 230.547L158.958 189.806L153.486 140.122L157.465 114.286L191.79 108.324Z" fill="#2F2E41"/>
<path d="M175.871 241.477C175.871 241.477 176.369 239.49 178.359 239.49H184.436C184.436 239.49 186.318 247.936 185.82 247.936C185.323 247.936 193.78 258.866 184.826 259.363C175.871 259.86 173.384 258.866 173.384 258.866L172.389 254.944C172.389 254.944 170.897 252.407 171.394 250.42C171.892 248.433 175.871 241.477 175.871 241.477Z" fill="#2F2E41"/>
<path d="M188.308 209.182C188.308 209.182 194.021 209.092 192.657 210.628C191.293 212.164 188.805 214.648 188.805 214.648C188.805 214.648 182.888 226.572 180.126 224.336C177.364 222.1 172.887 197.258 174.379 194.277C175.871 191.296 177.861 191.296 177.861 191.296L187.039 196.809C187.039 196.809 181.343 210.673 188.308 209.182Z" fill="#2F2E41"/>
<path d="M174.379 66.0927L176.369 53.6718L162.937 48.2065L160.948 67.0864L174.379 66.0927Z" fill="#FFB6B6"/>
<path opacity="0.1" d="M174.379 66.0927L176.369 53.6718L162.937 48.2065L160.948 67.0864L174.379 66.0927Z" fill="black"/>
<path d="M160.202 64.3539L176.12 60.3792L193.034 65.8444C193.034 65.8444 200.495 86.7116 198.008 94.1642C195.521 101.617 195.521 116.174 195.521 116.174C195.521 116.174 195.272 109.815 180.846 114.286C166.42 118.758 155.973 118.261 155.973 118.261L155.476 100.375L149.227 84.4874C146.556 77.6967 149.435 69.9868 155.905 66.6014L160.202 64.3539Z" fill="#E6E6E6"/>
<path d="M233.275 122.883C235.521 125.57 235.953 128.906 234.24 130.334C232.528 131.761 229.319 130.739 227.072 128.051C226.16 126.989 225.516 125.724 225.193 124.363L215.82 112.855L220.386 109.164L229.977 120.376C231.261 120.936 232.392 121.796 233.275 122.883Z" fill="#FFB6B6"/>
<path d="M192.311 66.0029L189.048 78.909L205.015 104.436L221.315 120.797L226.598 116.42L210.16 95.9915L197.699 69.6702L192.311 66.0029Z" fill="#E6E6E6"/>
<path d="M230.321 53.5458C241.691 52.7066 250.047 40.3798 248.984 26.0131C247.921 11.6465 237.842 0.68035 226.471 1.5196C215.101 2.35884 206.745 14.6857 207.808 29.0523C208.871 43.4189 218.95 54.3851 230.321 53.5458Z" fill="#2CD097"/>
<path d="M229.888 53.546H228.894V152.635H229.888V53.546Z" fill="#2F2E41"/>
<path d="M230.136 51.4535L230.255 54.9647L231.844 58.2151L225.216 57.8774L228.002 55.0784L227.687 51.8881L230.136 51.4535Z" fill="#2CD097"/>
<path d="M170.985 57.6647C178.549 57.6647 184.682 51.54 184.682 43.9849C184.682 36.4298 178.549 30.3052 170.985 30.3052C163.42 30.3052 157.288 36.4298 157.288 43.9849C157.288 51.54 163.42 57.6647 170.985 57.6647Z" fill="#FFB6B6"/>
<path d="M169.892 25.5936C170.288 25.8246 170.819 25.475 170.946 25.0346C171.073 24.5942 170.925 24.1266 170.778 23.6923L170.039 21.5062C169.515 19.9557 168.959 18.3511 167.824 17.171C166.11 15.3898 163.388 14.9367 160.937 15.265C157.789 15.6866 154.683 17.3889 153.22 20.2038C151.756 23.0188 152.379 26.9467 155.024 28.703C151.255 33.0177 149.941 37.8262 150.148 43.5484C150.356 49.2707 156.599 54.537 160.671 58.5681C161.58 58.0176 162.407 55.4377 161.907 54.5005C161.407 53.5632 162.123 52.4774 161.504 51.6141C160.885 50.7509 160.367 52.1255 160.993 51.2671C161.388 50.7254 159.846 49.4793 160.433 49.1551C163.273 47.5871 164.218 44.0512 166.002 41.3435C168.154 38.0775 171.836 35.8658 175.733 35.4989C177.88 35.2967 180.148 35.6628 181.907 36.9076C183.667 38.1524 184.806 40.3768 184.398 42.4916C185.455 41.4199 185.981 39.8493 185.783 38.3583C185.584 36.8672 184.666 35.4884 183.365 34.7296C184.156 32.1182 183.479 29.1142 181.643 27.0934C179.808 25.0725 172.364 25.4167 169.685 25.9486" fill="#2F2E41"/>
<path d="M169.476 35.5781C165.927 35.9607 163.365 39.0307 161.201 41.8659C159.954 43.5 158.648 45.3046 158.68 47.359C158.711 49.4361 160.102 51.2176 160.766 53.186C161.852 56.4035 160.794 60.2315 158.208 62.436C160.763 62.9203 163.525 61.007 163.966 58.4474C164.479 55.4678 162.218 52.5919 162.486 49.5803C162.722 46.9271 164.815 44.8851 166.595 42.9012C168.375 40.9174 170.046 38.2849 169.227 35.7498" fill="#2F2E41"/>
<path d="M156.413 118.012H54.102C42.4999 118.012 33.0945 127.406 33.0945 138.993V238.08C33.0945 249.667 42.4998 259.061 54.102 259.061H156.413C168.015 259.061 177.421 249.667 177.421 238.079V138.993C177.421 127.406 168.015 118.012 156.413 118.012Z" fill="white"/>
<path d="M156.413 259.558H54.102C42.2442 259.558 32.597 249.923 32.597 238.08V138.994C32.597 127.15 42.2442 117.515 54.102 117.515H156.413C168.271 117.515 177.918 127.15 177.918 138.994V238.08C177.918 249.923 168.271 259.558 156.413 259.558ZM54.102 118.509C42.7927 118.509 33.592 127.698 33.592 138.994V238.08C33.592 249.375 42.7927 258.564 54.102 258.564H156.413C167.723 258.564 176.923 249.375 176.923 238.08V138.994C176.923 127.698 167.723 118.509 156.413 118.509H54.102Z" fill="#3F3D56"/>
<path d="M145.618 127.76C146.928 127.76 147.99 126.699 147.99 125.39C147.99 124.082 146.928 123.021 145.618 123.021C144.307 123.021 143.245 124.082 143.245 125.39C143.245 126.699 144.307 127.76 145.618 127.76Z" fill="#3F3D56"/>
<path d="M152.142 127.76C153.452 127.76 154.514 126.699 154.514 125.39C154.514 124.082 153.452 123.021 152.142 123.021C150.831 123.021 149.769 124.082 149.769 125.39C149.769 126.699 150.831 127.76 152.142 127.76Z" fill="#3F3D56"/>
<path d="M158.666 127.76C159.976 127.76 161.038 126.699 161.038 125.39C161.038 124.082 159.976 123.021 158.666 123.021C157.355 123.021 156.293 124.082 156.293 125.39C156.293 126.699 157.355 127.76 158.666 127.76Z" fill="#3F3D56"/>
<path d="M50.748 224.372C50.0109 224.372 49.4114 224.971 49.4114 225.707C49.4114 226.066 49.5502 226.398 49.8021 226.643C50.0562 226.903 50.389 227.042 50.748 227.042H157.75C158.487 227.042 159.086 226.443 159.086 225.707C159.086 225.348 158.948 225.016 158.696 224.771C158.442 224.511 158.109 224.372 157.75 224.372H50.748Z" fill="#E6E6E6"/>
<path d="M107.962 223.927V227.487H50.748C50.2579 227.487 49.8124 227.291 49.4916 226.962C49.1618 226.641 48.9658 226.196 48.9658 225.707C48.9658 224.728 49.7678 223.927 50.748 223.927L107.962 223.927Z" fill="#2CD097"/>
<path d="M155.522 217.252H137.701C135.735 217.252 134.136 215.655 134.136 213.692C134.136 211.729 135.735 210.132 137.701 210.132H155.522C157.488 210.132 159.087 211.729 159.087 213.692C159.087 215.655 157.488 217.252 155.522 217.252Z" fill="#E6E6E6"/>
<path d="M88.5691 219.796L76.1109 177.988L75.1572 178.272L87.5718 219.933" fill="#2F2E41"/>
<path d="M89.0003 124.649C100.371 123.809 108.727 111.483 107.664 97.116C106.601 82.7494 96.5213 71.7833 85.1508 72.6225C73.7802 73.4617 65.4242 85.7886 66.4873 100.155C67.5503 114.522 77.6297 125.488 89.0003 124.649Z" fill="#2CD097"/>
<path d="M88.5679 124.649H87.573V223.738H88.5679V124.649Z" fill="#2F2E41"/>
<path d="M76.6708 176.777L77.7877 180.108L80.2385 182.771L73.7891 184.336L75.6604 180.859L74.4476 177.891L76.6708 176.777Z" fill="#2CD097"/>
<path d="M88.8154 122.556L88.9348 126.068L90.5235 129.318L83.8953 128.98L86.6814 126.181L86.3665 122.991L88.8154 122.556Z" fill="#2CD097"/>
<path d="M77.0059 177.65C87.6549 173.582 92.1099 159.376 86.9565 145.921C81.8031 132.466 68.9926 124.857 58.3436 128.926C47.6946 132.994 43.2396 147.2 48.393 160.655C53.5464 174.11 66.3569 181.719 77.0059 177.65Z" fill="#2CD097"/>
<path d="M167.398 112.926C170.754 113.938 172.951 116.487 172.306 118.62C171.661 120.753 168.418 121.661 165.062 120.649C163.715 120.262 162.481 119.56 161.462 118.6L147.298 114.133L149.081 108.543L163.264 112.643C164.645 112.406 166.063 112.503 167.398 112.926Z" fill="#FFB6B6"/>
<path d="M142.791 76.2779L157.714 65.3474L157.217 86.2147L143.288 104.101L158.212 110.063L157.714 118.576C157.714 118.576 138.811 114.038 135.826 113.541C132.841 113.044 130.354 106.088 130.354 106.088L142.791 76.2779Z" fill="#E6E6E6"/>
</svg>
