<svg width="183" height="183" viewBox="0 0 183 183" fill="none" xmlns="http://www.w3.org/2000/svg">
<path d="M84 4.33013C88.641 1.65064 94.359 1.65063 99 4.33013L163.241 41.4199C167.882 44.0994 170.741 49.0513 170.741 54.4103V128.59C170.741 133.949 167.882 138.901 163.241 141.58L99 178.67C94.359 181.349 88.641 181.349 84 178.67L19.7587 141.58C15.1177 138.901 12.2587 133.949 12.2587 128.59V54.4103C12.2587 49.0513 15.1177 44.0994 19.7587 41.4199L84 4.33013Z" fill="white"/>
<path fill-rule="evenodd" clip-rule="evenodd" d="M68.5766 114.423C67.0611 112.908 67.0611 110.451 68.5766 108.935L108.547 68.9646C110.063 67.4492 112.52 67.4492 114.035 68.9646C115.551 70.4801 115.551 72.9372 114.035 74.4527L74.0646 114.423C72.5491 115.939 70.092 115.939 68.5766 114.423Z" fill="#E81D1D"/>
<path fill-rule="evenodd" clip-rule="evenodd" d="M114.035 114.423C115.551 112.908 115.551 110.451 114.035 108.935L74.0647 68.9646C72.5492 67.4492 70.0921 67.4492 68.5766 68.9646C67.0611 70.4801 67.0611 72.9372 68.5766 74.4527L108.547 114.423C110.063 115.939 112.52 115.939 114.035 114.423Z" fill="#E81D1D"/>
<path fill-rule="evenodd" clip-rule="evenodd" d="M91.5 137.68C117.004 137.68 137.68 117.004 137.68 91.5C137.68 65.9956 117.004 45.3203 91.5 45.3203C65.9956 45.3203 45.3203 65.9956 45.3203 91.5C45.3203 117.004 65.9956 137.68 91.5 137.68ZM91.5 145.441C121.291 145.441 145.441 121.291 145.441 91.5C145.441 61.7092 121.291 37.559 91.5 37.559C61.7092 37.559 37.559 61.7092 37.559 91.5C37.559 121.291 61.7092 145.441 91.5 145.441Z" fill="#E81D1D"/>
</svg>
