<svg width="183" height="183" viewBox="0 0 183 183" fill="none" xmlns="http://www.w3.org/2000/svg">
<path d="M84 4.33013C88.641 1.65064 94.359 1.65063 99 4.33013L163.241 41.4199C167.882 44.0994 170.741 49.0513 170.741 54.4103V128.59C170.741 133.949 167.882 138.901 163.241 141.58L99 178.67C94.359 181.349 88.641 181.349 84 178.67L19.7587 141.58C15.1177 138.901 12.2587 133.949 12.2587 128.59V54.4103C12.2587 49.0513 15.1177 44.0994 19.7587 41.4199L84 4.33013Z" fill="white"/>
<path fill-rule="evenodd" clip-rule="evenodd" d="M118.692 72.4571C120.208 73.9724 120.208 76.4295 118.692 77.9451L83.7442 112.899L64.6958 93.8477C63.1805 92.3321 63.1807 89.875 64.6963 88.3596C66.2119 86.8443 68.669 86.8445 70.1844 88.3601L83.7442 101.922L113.204 72.4575C114.719 70.9419 117.176 70.9417 118.692 72.4571Z" fill="#3EA03C"/>
<path fill-rule="evenodd" clip-rule="evenodd" d="M91.5 137.68C117.004 137.68 137.68 117.004 137.68 91.5C137.68 65.9956 117.004 45.3203 91.5 45.3203C65.9956 45.3203 45.3203 65.9956 45.3203 91.5C45.3203 117.004 65.9956 137.68 91.5 137.68ZM91.5 145.441C121.291 145.441 145.441 121.291 145.441 91.5C145.441 61.7092 121.291 37.559 91.5 37.559C61.7092 37.559 37.559 61.7092 37.559 91.5C37.559 121.291 61.7092 145.441 91.5 145.441Z" fill="#3EA03C"/>
</svg>
